<svg class="main-svg" xmlns="http://www.w3.org/2000/svg" xmlns:xlink="http://www.w3.org/1999/xlink" width="700" height="500" style="" viewBox="0 0 700 500"><rect x="0" y="0" width="700" height="500" style="fill: rgb(255, 255, 255); fill-opacity: 1;"/><defs id="defs-79b54d"><g class="clips"><clipPath id="clip79b54dgeo"><rect x="258.6625886302853" y="59.50000000000003" width="441" height="441"/></clipPath></g><g class="gradients"><linearGradient x1="0" x2="0" y1="1" y2="0" id="g79b54d-cbcoloraxis"><stop offset="0%" stop-color="rgb(246, 210, 169)" stop-opacity="1"/><stop offset="16.666667%" stop-color="rgb(245, 183, 142)" stop-opacity="1"/><stop offset="33.333333%" stop-color="rgb(241, 156, 124)" stop-opacity="1"/><stop offset="50%" stop-color="rgb(234, 129, 113)" stop-opacity="1"/><stop offset="66.666667%" stop-color="rgb(221, 104, 108)" stop-opacity="1"/><stop offset="83.333333%" stop-color="rgb(202, 82, 104)" stop-opacity="1"/><stop offset="100%" stop-color="rgb(177, 63, 100)" stop-opacity="1"/></linearGradient></g><g class="patterns"/></defs><g class="bglayer"/><g class="layer-below"><g class="imagelayer"/><g class="shapelayer"/></g><g class="cartesianlayer"/><g class="polarlayer"/><g class="smithlayer"/><g class="ternarylayer"/><g class="geolayer"><g class="geo geo" clip-path="url(#clip79b54dgeo)"><g class="layer bg"><rect x="258.6625886302853" y="59.50000000000003" width="441" height="441" style="pointer-events: all; fill: rgb(255, 255, 255); fill-opacity: 1;"/></g><g class="layer land"><path d="M259.1625886302853,60.00000000000003L699.1625886302853,60.00000000000003L699.1625886302853,500L259.1625886302853,500Z" style="stroke: none; fill: rgb(229, 236, 246); fill-opacity: 1;"/></g><g class="layer coastlines"><path style="fill: none; stroke-miterlimit: 2; stroke: rgb(68, 68, 68); stroke-opacity: 1; stroke-width: 1px;"/></g><g class="layer frame"><path d="M259.1625886302853,60.00000000000003L699.1625886302853,60.00000000000003L699.1625886302853,500L259.1625886302853,500Z" style="fill: none; stroke-miterlimit: 2; stroke: rgb(68, 68, 68); stroke-opacity: 1; stroke-width: 1px;"/></g><g class="layer backplot"><g class="choroplethlayer"><g class="trace choropleth"><path class="choroplethlocation" fill="rgb(234, 129, 113)" d="M640.46991602447,85.55825411629587L643.6057907392992,86.39071913405053L645.1733129277596,86.40168767387422L649.8767098379559,86.4236247231014L653.3938738274361,87.25607722175994L658.9246434351476,87.59562523936393L662.8770917340506,88.12136985564382L665.131598976233,89.33720735114503L668.1470230360715,92.06445699971175L670.0958341573222,93.40064133986016L672.4151356456616,94.73679499749483L671.6641869784822,98.65749751581916L670.5427483350612,100.68349229178784L669.9762140281983,102.38087055516166L671.2289027276993,108.20628561909894L671.8602310516227,109.79396218103727L675.256944394041,112.90345822933568L676.9449171890695,115.44349798723931L677.2605814392149,117.7863634473216L675.5078143646651,119.98683725072135L672.4915596373238,122.69074160264347L671.2397017211276,124.01532279243213L670.0526380870347,125.65728087105686L667.9842067840334,127.67139415944757L665.7845255066737,129.93716589134067L661.7664520810646,134.2166984592202L659.4479813799139,137.43442326876345L658.6962021129309,141.35233003420376L657.8256335649287,144.06624785879342L657.5747635370885,146.97702011396598L657.5747635837936,149.2420837001L656.758190048213,152.78725510756965L656.3876997876092,155.1177416318002L656.2572806579093,156.70420150252744L656.3229055625267,157.84202089443556L656.2032855177703,161.12415845652367L656.6385698752224,163.71693606767326L657.4003173840546,167.51287726080398L658.0216776281288,168.39893492377962L657.5855625774117,170.35696141286905L657.1502780927158,170.66323844158978L656.5189497642656,171.80081100070538L656.2680797982375,173.32119469478653L654.9505968776296,174.9509649082496L653.5134939386339,177.72911669256814L651.9999670653363,178.85561454537708L648.8640923496108,180.16806480098853L645.4125531718089,182.24604906675188L641.0904453832536,184.93639074132432L639.3916733504711,186.25967136903307L636.9419528211404,188.2718150921279L635.0695656431999,189.71532545108425L634.3069873032096,191.03845976229024L632.93550926915,193.3129383454543L630.985867280522,196.58235747770163L630.1692939247052,198.65983376584745L630.3005436335416,200.31083131596108L631.7484457339815,202.082010556593L632.249354953032,203.098829121035L632.8150583874452,204.73877208218335L633.3159677652059,206.50988948405166L633.3159676616464,208.4668030884933L633.4472176166644,209.8552040470281L632.7502641427426,211.4294109292614L631.4975756127175,212.6865512927635L632.2493550325706,214.97125987859374L633.3267667526086,215.85669424594698L634.3942102692771,218.38173918004395L634.3285854331804,219.64970055308947L634.8951194782198,221.42044068685288L636.2773965649851,222.0543709243227L636.2773965735013,224.1966518012589L635.8421122839852,225.65030565860434L635.5264480606561,226.4044826876086L635.1451589288974,228.36084444491428L634.5902544584854,230.63410568133327L634.1433402793709,231.51929325740934L633.0219015905816,234.28422330793455L632.3905732086512,237.75938769972845L631.7700437287409,241.54029813375246L631.5847986219426,242.55655306452547L631.3347593929049,243.682055874046L631.5200043870458,245.90018545083979L632.0857080319079,247.60469069756925L632.1513328994113,249.42940346049738L632.2709529108287,250.3144170798314L632.4013722477195,252.78361620217186L632.1513328129676,254.35689059807487L632.0317127210392,255.864596214279L631.780842704472,257.1974434483759L631.5308034408442,259.7757082923016L630.5829800383656,261.4143689393911L629.7772056299552,266.59235283024896L628.2645095148401,270.42645747936854L628.0136393815941,271.69352992131394L627.4587350376943,274.6535984941954L628.0244383930287,276.7397931587038L629.0918819965997,279.64504094163476L629.2115021432353,279.9617868753086L631.106318104501,283.31467585649375L635.1783867545987,286.2961822023374L636.5606637801905,288.3165115120765L636.876327887061,289.76893851344727L638.2594356713397,293.055914232109L638.5094748442904,295.3272578066122L638.5094748971665,296.71405810273984L638.825969840031,298.9853003469008L638.7711440555095,301.0708147042543L638.5211045974335,302.4575185177413L638.2702346789526,304.5320643714188L637.8349503558688,306.1698081448403L637.9545705285256,307.7529598119173L638.2702346270822,310.46058019779343L638.2702346031431,311.79257126338433L638.3358596602855,312.92796963393374L638.4006539224417,314.81667485064924L639.2172274307989,316.39961298115276L640.915999244321,319.30351668355024L642.7343914252324,322.0871850241121L643.8018348945685,324.17218398811724L645.815440301923,326.7046080533543L646.882883927876,328.65849042604566L647.002504006897,331.31091054950235L649.5178493965018,335.0438178551812L649.5826436731971,336.1134418566146L647.5142122755433,338.55824906223825L645.8810653213794,339.06030698948007L644.7488275448554,339.431396976871L643.6813840735593,339.68242389094274L642.9960604917086,339.86795487348115L642.0590360430788,340.3045104906829L641.6129526061839,340.9375216288403L639.9249797039015,342.24719304615644L639.1740312885859,342.88019064944893L638.1614135109389,343.6878045029683L636.0273573582436,345.0083385730581L635.4724528159879,346.1433098146411L634.3393844606364,347.016384941842L633.0875265965559,347.5183963608335L632.4561979664311,347.88942590556536L630.9534701924788,348.5769457093295L630.0064775310188,349.2098996360249L629.50556816032,350.0174579617063L628.62336983126,350.08294589305297L628.0028404028294,350.0829459324347L627.5019311560374,349.0680467497547L626.9902226863519,348.1185996757581L626.6853576043386,346.9836528915952L625.9884041410801,345.8486660953271L625.4227006178821,345.40120881419585L624.4856764310134,345.1501976561119L623.4838577180791,344.70276299698327L621.1545880575554,344.3753556760771L619.4009902694613,343.1748438274429L618.3343774658481,343.1639412654176L617.0168946307988,343.09844850219923L616.0690712057108,342.585510438317L616.0042770634968,341.71241881557205L615.8190319091804,340.06441424568146L614.501549142509,339.56236194697107L613.7506005569765,340.1189803938903L612.7487819421937,341.5705283187749L612.367492911799,342.82562604924806L612.1174534666662,343.327634190023L611.9970026908813,344.3425966913964L611.8009586093798,344.9646774956952L611.5509194407842,345.7177102742012L610.4294806740826,346.0341844269876L609.9833972261988,346.15423790091734L609.9177722461278,345.4667000156586L610.2334366082603,344.71366533501464L610.2990615289806,343.57865031208746L609.6669023576727,342.880190520548L608.2846252890357,343.0657149061975L607.6640959227276,343.87332719752834L607.282806828731,345.3903066638026L606.4662331663917,345.95779161288493L604.7782602987672,346.0778449565672L604.4625960310741,345.7613448314628L604.6478411246798,344.1134134315513L604.8987112026394,343.1748437509434L605.1487505185863,342.22536190149384L604.4625961025466,341.34133818123917L602.9490691503197,341.3959035521207L601.447172053082,341.51596303052384L599.9444441825739,341.450468977708L598.8770007317981,341.13397874848965L597.8103878573941,340.6210296297715L596.678150069661,340.5555348473673L595.295042317177,340.49006612320477L594.2275989581879,340.4791374883576L595.2294174363631,341.05758178476776L596.1116159607691,341.6905876685579L596.3616552864775,341.94160820127155L596.6125251626333,342.37815394216756L596.6125252319782,342.94565748727655L596.5469003230002,343.7641993060248L595.9263707627922,344.211638704666L594.9245522915721,344.39718647607043L592.7257017301936,343.3167317571247L590.3407754009562,342.60734143575826L588.5772093252486,342.476380975534L586.3235328018453,342.6510035648094L585.1904643874078,342.4654523658965L583.938606532514,342.0725694727219L582.3054594391217,341.3086040982454L581.5545109007887,341.18854436099014L581.4232610662837,342.3235890896043L581.4232611068189,342.8256260247357L580.541893267447,343.32763419256986L579.8557390487064,344.13524417868854L579.8557389805183,344.70276288759766L579.7901141049404,345.6522191272346L579.7901140179217,346.35068369863916L579.8009129932302,347.10367902895126L580.5526923384678,348.6206050806002L580.3018223309473,349.4390702065311L579.3548296369238,349.74465601167043L577.9177267029896,349.93016651715743L577.2863982531773,349.9956286053502L576.6002440207315,349.5482174476065L575.0867170311401,349.22082746867255L574.1505233539896,349.1553387490883L572.3861265830154,349.20989962206L572.0812614037231,349.40633890014556L571.7655970657253,350.4757944335852L572.1360872626996,351.4797767025748L573.5839891112327,352.2436575729348L575.1523420422743,353.073018088783L576.4149988427182,354.0878736588926L576.5346190777757,355.09179095941806L576.2189548288438,356.1066244849372L574.8474767093446,356.09572351079623L573.2683249004937,355.1463742500868L572.33213142259,354.19698932170354L570.56773436842,353.869615610099L570.633359428035,354.3715899652885L570.7637786113895,355.63741459005934L570.6989843925348,356.2048368838716L568.8149672191189,357.07781771196983L566.996575277232,357.3833525441156L565.8103422825803,357.5688480984296L564.7977247270803,358.5072721220949L562.9793326152119,359.82759605366755L562.7940875111631,360.3950192487721L563.0441267946255,361.4643495048761L563.0441268681204,362.09721649110475L563.2401709255014,362.9155642334718L562.6744673428726,363.35201166622016L561.160940460553,362.40273504675514L559.4729676578213,361.5734566994963L558.7112199374501,361.07152077995306L557.023246954449,360.6896168642288L556.9576220369464,361.8789770527006L558.0250657025829,362.708252905617L558.7220189858837,363.6575263109677L558.722018916011,364.5958905673149L557.6545754661413,364.84684964236266L557.3389112684538,364.595890537468L556.2722984014813,363.45021666406785L555.3244751475646,363.01376967782807L554.1922372735082,363.19925400839537L553.0707986987616,363.7557311512408L552.0041857795627,363.5593215571897L550.435833057251,364.192174679561L549.303595390499,364.36675697835574L548.4870218251823,363.1119748234364L547.1039140455815,361.5843569577664L545.2863527796721,361.95535695607447L544.9050634413431,362.9046641160611L546.3529655453818,363.66845245716945L547.2891591686339,364.486786720172L547.0391198926862,365.11963369672236L545.1011077267998,364.7922977949171L543.7836248345193,365.108733827929L538.7529339179594,365.4578684169387L535.9983480797822,364.06124447240205L534.0495368472634,365.7524765271649L534.1151618015473,369.03662665897275L533.929916719353,369.47307254583967L533.1781374415943,370.10588681204763L532.2967697205136,370.4113802763058L531.860654745466,370.4768280631432L530.5431718523392,370.149510258438L529.2148901485384,369.39669858141536L527.9630322681554,369.0693770779943L525.1428215086636,369.6912687027412L525.5133117767987,370.9568903558404L527.212083702495,372.909839343751L528.0286570728828,373.9899560549108L528.4091155607853,375.05913606014894L527.9082063322446,375.49552898618424L526.6455494574747,374.92822043953424L524.7623631298779,373.7826684338421L522.7587260146015,373.71719675797146L520.940333873936,373.38988986603425L519.8080960699073,372.9425885292359L518.4249883393775,372.4297865920634L518.4249883615006,370.60774975214355L517.7388340080763,369.4730724572044L516.7918414694744,368.20743159095264L515.289113539642,368.5783798801411L515.4743586692049,369.7130934717425L516.2909320993962,371.1641840442414L516.6722211958584,372.61527906965057L516.857466316229,373.8153913115357L516.6722213127988,374.5027237801475L516.1713119880127,374.8845731569347L515.4743585039429,374.8845732420626L514.2872949832346,374.30633611868905L512.9698121174365,373.7935673104881L511.77278007620475,373.85903896741496L510.01918235306437,374.6009175773531L507.5694618862064,375.419159667001L505.6206505005779,376.97928175724485L504.49921183388125,378.11389811619784L503.68263833686484,379.1830335102532L502.86606477993547,379.17210926705144L502.23473627251235,378.03753092264344L501.7338271368623,377.28475364050985L500.60158931469164,377.4047677444419L498.7175723800355,378.02660638900534L498.3470821941193,376.64106109731244L498.3470821058387,375.62644391773L497.3344645734869,374.4918249036987L495.2004083282252,375.8664757560058L493.8289303482191,376.48832416383794L491.9449131849914,377.5575031175461L491.8144941380243,378.0593278703453L490.1813471245114,379.18303364959723L488.4285799782107,378.23388516739215L490.6274304881248,376.8592673374405L491.564454881741,375.4737055095502L490.9979206463631,373.89176180238763L488.6138249981843,374.44817759099715L488.0472907353641,372.94258852381114L486.4141437644047,372.04792781681357L485.84760959581314,373.68447399830217L485.5427443673378,374.50272388249874L484.34571229856954,375.0591360579895L483.2126439222183,375.05913605713664L482.96260466950883,374.4263537076195L483.21264396543955,373.23714796762215L483.14784969869135,371.7206152093414L480.7629234034553,370.5750257912101L479.89235461287984,370.0622373880811L479.64148468260817,371.39330168845805L480.01197485646196,372.46253598583L480.8285482545787,375.04823733151454L480.5776782522818,377.06654850003343L479.892354623075,377.7538582994579L479.39144538367157,378.07025242062656L476.62606052916715,378.94300976300246L476.6260606276816,377.49203394650453L476.690854782181,376.2919665271912L477.1269698824927,374.72093478955134L477.57305330480426,374.02267885772955L478.19358276981666,372.6480022088662L477.94354343808396,371.5133227578304L476.18994565278103,371.05508763361735L473.35893595332004,372.17884724769925L471.2248794925645,373.68447400639093L468.7211638560612,375.19005154566577L466.2714432613958,376.2483197884191L465.3344188832343,376.2483198184167L464.57267131462356,375.73556126905953L462.939524273117,374.7209347507573L462.37299005982203,373.7171967280614L461.5564164871498,372.2006714453753L460.3701836348005,370.9896142290329L458.67141165580006,370.35683164741687L457.35392895221383,371.99338003137996L456.4177352503319,374.0663265370832L456.23249014690094,375.20097628953937L455.2846668013127,376.5210722067016L454.5993431997449,374.5572701165295L452.90057116244526,373.9244846116147L450.38522571101726,373.9790311545031L448.0011301316417,374.0336038525248L446.3131571137666,373.8372151963153L444.17245534739925,374.6264348646318L445.0612992767987,375.0264136973907L445.3661645678591,377.11019473270875L444.87605419989586,380.56851748423685L444.81042929428946,383.5358238021586L444.42997092893756,385.7394312217513L443.30853208471973,386.29578078114156L442.9920372825797,384.59400358036055L442.045044609398,383.7103714807059L441.10885098725134,385.7176360202197L439.7257432414898,386.6012243521338L438.6591303705819,385.9030776133681L437.1564025955395,385.25944026769764L435.45763053751716,386.3939629670408L435.0223461735476,388.0957100490203L433.63923856431614,390.2228605149735L433.3235743419774,390.1028878628593L433.07353500672764,387.7030138333664L433.0079100307126,386.50306859120906L431.9412972508391,384.86673294602616L430.5033635276259,384.288553811019L428.55455243477047,384.97581421587574L429.37112583636275,385.85943507236664L430.56898857298575,387.7575528101653L430.3189491941228,388.5102515784932L429.18671142202317,388.6302261118458L427.7379787910579,387.99752960241955L426.4861208867261,387.5502938545852L424.6021039522029,387.22303205929677L423.2846211743668,388.5429695217668L423.3502461540928,390.7464684656938L423.3502461769377,392.0118237557239L422.5992975556058,393.33169948468196L421.90234417406623,393.51712714292404L421.5318540277323,393.0699153560346L421.1505647953191,391.88093000678384L420.71528052161784,390.48467796634003L420.01832718796345,389.2193038451631L418.9517143003888,388.21571128093393L417.63423140402057,388.01935037282044L416.5019936815418,389.2083805353742L416.5667879187906,390.34285910509266L417.0676972688111,391.79365029319274L417.7646506138131,392.4917827313777L419.33217272156867,394.20432541723267L420.2143711244796,395.5896306813599L421.2161897834866,396.85492659771074L421.7827240203023,398.1202072232165L421.3466089932957,398.6219567545962L420.595660343243,398.7419195823366L419.3977977466118,398.4801491369553L418.5812241118698,397.7275229771262L417.579405541825,396.2659186034007L416.82845703552067,395.0115121199093L415.8158394194678,393.68076110767134L414.81402077742825,392.09907733868977L414.43273162759687,391.3464309733308L413.30049392391953,390.0810675469256L411.9290160025977,389.0665861157196L410.09982486325794,388.8702269959719L409.6637097669772,390.1246821430678L410.79594760747557,391.45550528985217L412.1790552953881,392.153613979484L412.93000375284583,392.91720351559036L413.62695718880747,394.8042677152593L414.1278665197356,395.93868470746133L414.87964576158413,397.5202839148712L415.5765991874171,399.6690589810666L415.01006489787625,400.5416318249121L414.87964579798876,402.43948036126466L414.6944007412102,403.44293575521266L413.9426214137088,403.87920745593374L412.8103837285766,403.56291914195896L411.6781460120667,402.8648604526578L409.9253787231341,401.8505038225312L407.84531763070277,399.9526446756797L405.2103520063312,398.1747408173026L404.5250285023097,400.69433272604795L405.52684708223376,402.0141246459005L406.4082147030686,403.5956322794348L406.9091240090561,404.860832000339L406.5934599141149,405.2316723996156L404.90548690214354,406.3005262876654L404.0241191303974,406.42048054979017L403.08792543394134,407.1076204220924L402.45576637014074,407.6747513554907L400.45295989385824,407.9146823139675L399.6363863488874,407.34755271683497L399.31989148026855,406.1478334933164L398.81981284265106,404.8281191950573L398.43852372570865,404.06461668652287L397.93761442092625,403.24660380118996L396.8053766474968,402.61399614343924L394.51681107171936,403.22749065702783L394.48607541582646,403.2357079586166L391.7854848386338,405.6134071629071L390.59925193684506,406.18054611379733L389.9670926693942,406.67133588427964L389.15051926653445,406.2350755377949L388.2691514185008,405.78789180988497L386.5155536021374,406.7913155413828L386.385134450216,407.9256036828617L385.38331585031443,408.67815741677276L383.63054865823267,409.1689357823798L381.8777816007238,410.3577261976055L382.31306598209153,411.62284601684166L383.51092856921474,412.5716633302183L385.07845070375606,413.4550519033638L386.2655143603032,414.7855814283964L387.52817125956506,415.1672825256039L388.71523479900264,415.8652354089594L388.90047993233054,416.8140419588995L387.5829971490215,417.5010900353723L386.0146442588227,417.3702277960274L385.44894081350526,417.68647577160505L384.19708297239004,418.2426574206721L384.8932056272854,420.7072585192915L386.7115976727637,421.9068437331164L387.4085510550749,423.5535030659542L387.52817125723374,425.8762152112551L387.09288693418034,426.75949780304774L385.89502417154733,426.69408519305745L385.274494680457,425.81080208920486L383.9462128413243,424.2950300958195L382.37869081471274,423.78250565993176L381.82295572267867,424.78573878277575L382.5747350103138,425.8544021863323L382.75914927310214,428.50422986045265L381.44166653502975,429.88909788069L380.5054727763765,429.87817878420424L379.43886008193704,427.99172459335307L378.24099740013634,427.544629384295L377.4900487184704,426.9121621151322L376.80389449221644,427.66458626044545L377.1087595394043,428.54785492825806L376.4226052091074,429.23483122709337L375.5404068158625,429.60556369891157L374.4737940422017,431.11037180038625L373.53760045363515,432.42977300323656L373.0366910399672,432.99677460891684L370.9026347679461,434.7523303946673L370.08606122695215,435.63551849221784L368.95299287238055,438.023444179176L368.20204434917673,438.45958069486L366.69931646575014,439.58263029141864L366.3836522354479,440.716587219482L368.14804909472764,440.28045921805455L369.7811961466856,440.7929100811958L370.65176473382957,440.9891761610362L371.84962747031824,441.5016239777955L372.6662010505135,442.38478740732074L372.91624027851225,443.70406120212715L371.0986788575816,444.70714773567283L369.0294167968505,444.44545912001803L368.1480490733733,445.51394154332604L369.3450810719573,447.14937404771155L370.16165454718436,449.5479594014825L370.4773188726739,450.93255386314166L370.1616546370081,453.51639329072356L369.53032618310385,454.9009689156064L368.59413251414406,456.53627534359975L367.7775590337349,457.353907361619L366.32965695720924,457.7790834165479L364.64168409215847,458.4113862942875L362.82329197752375,459.7849907719687L362.44200279120605,461.1040766850398L363.19378214329345,462.55396108814455L362.4420028163863,464.94133203257326L360.3735713560643,465.5082076731642L357.1720716780221,466.0532486826957L354.72235116053207,466.3039757043196L351.2708119495892,467.7974117758738L350.0189541081319,468.4187749228177L347.56923358091774,468.909303706308L345.94688551014707,470.72973248242465L345.94688548708893,471.4927741012088L344.3793634157324,471.48188459472277L343.31192000284216,470.66431744144853L341.61314803935045,469.63966140562167L339.22905244891814,468.309748071036L335.1461847667157,465.8352429206885L334.0131164940444,467.72110569675203L333.8287019732227,469.30174596253755L333.5778321471836,470.3045997407938L332.44559436203946,469.6723561093571L331.7594399418649,466.9580415474205L330.87807216611407,464.8105224323913L328.74401599242606,463.7967094910759L328.17748171802685,467.56849309977804L329.05968012892345,469.3998304532592L329.179300172382,470.41359886276945L328.1226557718601,471.6671866834439L326.42471446323543,473.4221633552154L324.54069756961735,475.0463170346313L322.90755047296295,475.6785347728955L322.2213962201463,474.73021997293176L321.9713567968126,473.2150591648778L321.9057318290686,471.8960980025643L320.588249204489,471.503663597213L318.5738129500161,472.50652629157895L316.9514650280097,473.37858031634323L312.9342223327184,473.73828950637403L313.23908742750604,472.484721709437L315.06827871431904,471.99420648319267L315.4387686658056,470.9150354303685L312.9882174879964,470.71884292426006L310.53849690893674,470.52262398018655L307.9691562950262,470.4463194848123L306.58604864798554,471.5145789897933L306.33600928441945,472.1358983400848L304.9529015519655,471.63449247834944L306.4664285263169,469.61785614785657L306.96733778888233,466.9798472873522L306.71729844482263,466.8490396580089L305.3998155785564,466.34758718127927L304.2675778407171,467.4049907688416L303.83146290654565,468.66949741766535L303.88628882036653,469.6723559771443L302.6344307727295,469.1055249906156L302.002271766753,468.53866532316266L301.2513230474136,467.0779594785298L300.3043305277225,464.3090619183826L298.6819824196011,463.4151664399342L297.7997841109383,464.418092321107L297.73415916210104,467.00165280591483L298.0498233918021,468.70219228249636L298.5507326391995,469.96668622649605L297.23324979027876,471.1003643979161L296.54792621111943,470.20649012133407L296.3626810692061,467.7538007683243L296.8635904001952,466.5656181752856L295.4804826472818,466.1186660675198L293.40125226040357,466.10775021027627L291.6476544642711,466.16227747378656L289.32918372425996,465.3337866158974L288.76264951059795,465.51909748022894L287.25992162384824,466.8381237462654L285.4963553731863,468.0917461182058L285.12586536903694,467.0125426218528L285.2454854750998,464.42898233730307L285.4307305060332,462.7392761089162L283.99362756573277,461.84536936300344L281.34786289499164,460.7006408924681L281.06459582135574,406.4095850301581L282.33888242658054,314.32535842199104L283.01340697728926,286.197864524383L283.5583432152565,261.3488377004117L282.41447583496176,240.8300473556286L282.4144756773253,240.5131390457525L282.73097073533927,240.14162215614374L283.4819192045436,239.19093649208355L284.4289120137512,237.99981363459426L284.7994019841527,237.5626798013492L287.43436766817535,234.73231983924757L287.8156568162946,234.48094001663412L288.56660542076577,233.40996050141803L289.1331395536009,232.77613056880523L289.8840882789009,231.38817817037307L290.38499743306556,229.75974679338196L290.9507009800503,228.6231373769126L291.5172352264932,226.85257604589287L291.82210034402874,225.53012453943518L291.8221003185673,225.21314947602298L292.8895439753606,223.20202946983954L293.0739582487928,221.6827590488616L293.8257376145065,220.67715637784784L294.2718210216141,219.67153919166685L294.7727303183539,218.7205837401009L295.70892377036125,217.52912191054725L296.71074248658,216.52346005851507L297.8429802730982,216.46883471800652L299.4761271774929,216.1518190206059L300.22790654564176,215.91132003677365L300.97885506843977,215.84574824531558L301.22972512907324,215.84574824790093L303.11291137885325,215.35385316709494L306.1291661184952,214.0420814910117L307.82793814535455,212.4023583261992L308.26322236866883,211.0140081939884L309.58070524520923,209.25395285233253L311.26867812476866,208.4340136457589L313.0862395038356,207.37358858988307L314.66539143397523,206.36778042831838L316.7886487184537,204.92462323506663L318.6718348949785,203.86414425531507L320.05494266167045,202.79270072930603L321.5028446839764,200.90121206448032L322.8751533709818,199.27212620247087L323.8221460306785,197.68669261316268L324.69354539461403,196.24340463638384L324.9435848271967,192.07729074665497L325.1944547656259,190.37139468187183L326.1962733058777,189.3653880578288L327.7089695983408,188.23901596465566L329.71260663100077,186.85017490093958L331.0300894603388,186.04091673879395L331.66141788061026,185.7238124615243L335.11295704417773,183.5256305087396L335.73348653489126,182.83664016177488L337.74792254525335,181.07585450467343L339.2506504126212,180.1352616491688L340.93862332425783,179.26031480990753L342.3209004866637,178.05721122258467L343.63838315416115,176.54783761260853L345.08628529013015,175.35568914972396L346.0233095436314,174.34940257713333L347.7212508125144,173.40871340415583L351.9893633984703,170.70699958756393L352.49027268929393,170.45538532966577L353.49209138870873,169.76625806949596L355.06044417730953,168.95678996327308L356.87883612476924,168.33326473791737L358.01107390733966,167.764450606158L358.3159391845936,167.69669335399362L359.14331171492546,167.51287707583413L361.08132390027407,167.20658523787756L362.64884597713956,167.2174870234121L365.2838115077921,167.29406009350157L368.3656911992399,167.30501409208648L370.4997475355457,166.9987211686314L372.7534240464752,166.50646940377567L374.51699019121315,166.00325951304467L376.52062736233836,164.49360666595555L378.21939931640645,163.73879305326466L380.1025856613654,163.6840725321639L385.18727166186244,161.24450649462688L386.6243746471226,160.11765077265306L386.87524466534103,157.96237497944367L387.1252839179632,157.4590981920187L387.94185748606566,156.2665451961259L389.69545531187896,156.08055731229945L391.0129381485947,155.52259022507144L395.0958056140801,154.0236460831038L395.28105083968074,152.6888040602097L394.8997615851499,151.43047375412027L395.4662957577614,149.5922374393415L396.5329085739411,147.89618325479285L398.41692569565,146.57216861955476L400.23448702550337,144.49303101370015L400.73539637611253,142.09645279257688L402.8046584036928,138.25520130484608L403.74085203727026,136.1101334590369L405.50441815821455,134.15104478996898L406.8767269518116,131.75406498503537L407.32281041598964,129.74013887774106L408.13938387234464,128.35002293867308L409.0107833003903,127.9669185979451L410.77434942135125,126.14985419988875L412.3966974618593,124.1904454505285L413.3985160603909,121.10346068754791L414.16109429187236,119.76785307729665L415.72861641387476,118.07097369270468L416.6000159077413,117.19516134145772L416.98047420006515,116.05659125114528L417.1582430947286,115.63180149562936L417.3509643801191,115.16978622556042L420.11634912180676,115.93615530929037L421.7494961232698,116.13322743160529L423.002184830913,115.64057179133465L424.1344224921116,115.20262342139131L425.5715253310939,115.5858089630783L429.0338635253698,116.36313550711543L431.8540742366454,117.12948926316005L433.7372606047511,116.94338311717001L435.49085837400503,116.8886212418679L438.1258239475228,117.09665318905809L440.6403387204411,117.3593933712749L441.6421573891888,117.42506526461443L443.4065541642563,116.9871820600788L445.1593214739795,115.9799550159662L448.10995119934006,115.36686093038736L450.4940468318203,114.23916696480308L452.7477231828859,113.93261193062324L456.1452672435735,113.69173112350666L457.14708582766434,113.75745906397151L458.27932356883923,112.81585432926533L459.6508015416894,112.56405768691604L460.28296058404146,111.74287856084675L460.28296058917226,110.5494366347051L460.71824506614837,110.04577057290862L461.29059411271123,108.98229930749119L460.79716103095564,108.62559431306909L461.9809019116905,108.52383471077474L464.30020322509915,107.39601059756183L466.8047497376122,106.26816489116538L469.68975466372257,104.76800945844661L470.7023721793535,105.65497026468665L471.1384871535477,107.17703239528578L473.6530019843441,110.5384725214185L475.90750911577226,111.05309827138342L482.62534226224125,109.43261535385489L483.9428250532174,108.4362242946836L485.8916364026394,105.3374579747342L488.84226629343107,104.08911261410026L490.4646141668956,102.57793576709923L492.59867059464307,99.54455119683132L494.60230771297665,95.95249278043684L496.3002489206308,96.01818852645135L499.3165037138678,96.91624900621855L506.78611606216396,97.01479096720345L510.42206948807507,97.22289304494393L512.7521699434035,99.94977053316711L515.0714714039059,99.77452395379328L519.5904539456199,99.2160396219083L522.976368155287,99.1722273914371L524.9908043272293,99.68695277060169L529.6285763028753,102.42462818751767L533.8426937023237,103.01597796297085L541.6819655896962,104.69135854116291L545.9500783089477,104.64760271038574L549.28199728662,103.95773930688802L552.2874529286148,102.2713200822376L555.7381614097426,102.53417846148284L557.001648923145,104.43952697907685L557.8182224331935,104.50521317647599L561.7050460474583,102.43559363785619L567.0406021244384,99.9278386423938L569.8608128241267,99.36935564503199L573.0614818919055,99.12841535253176L581.2820429149068,99.86214727975369L583.7973882642825,99.80736965162157L587.1176775506168,99.06272297313251L589.7634422992495,97.29955380565013L592.5836529413243,96.05103630844803L599.6719762077639,94.05778113172778L604.6910373966298,93.31300827238442L607.6424977525719,94.52873614253156L609.8413484745126,95.1091995451169L611.2892503027649,95.81008226661527L613.5437575438905,95.68965687811158L614.8612403660572,95.70057143416125L617.942289250437,97.036724017496L620.8272940693546,95.65675674609281L622.6456862878397,94.7806103611482L625.2158576669212,90.43247858801953L628.8518109611864,88.41714462355787L634.3177863522582,85.8539901630403L637.5732812877692,83.83849482256358Z" style="stroke: rgb(68, 68, 68); stroke-opacity: 1; stroke-width: 1px; opacity: 1;"/></g></g></g><g class="layer lakes"><path style="stroke: none; fill: rgb(255, 255, 255); fill-opacity: 1;"/></g><g class="layer frontplot"><g class="scatterlayer"/></g></g></g><g class="funnelarealayer"/><g class="pielayer"/><g class="iciclelayer"/><g class="treemaplayer"/><g class="sunburstlayer"/><g class="glimages"/><defs id="topdefs-79b54d"><g class="clips"/></defs><g class="layer-above"><g class="imagelayer"/><g class="shapelayer"/></g><g class="infolayer"><g class="cbcoloraxis colorbar" transform="translate(10,60)"><rect class="cbbg" x="595" y="0" width="94.921875" height="440" style="fill: rgb(0, 0, 0); fill-opacity: 0; stroke: rgb(68, 68, 68); stroke-opacity: 1; stroke-width: 0;"/><g class="cbfills" transform="translate(0,32)"><rect class="cbfill gradient_filled" x="605" y="0" width="30" height="398" style="fill: url('#g79b54d-cbcoloraxis');"/></g><g class="cblines" transform="translate(0,32)"/><g class="cbaxis crisp" transform="translate(0,-60)"><g class="ycbcoloraxistick"><text text-anchor="start" x="637.9" y="4.199999999999999" transform="translate(0,450.2)" style="font-family: 'Open Sans', verdana, arial, sans-serif; font-size: 12px; fill: rgb(42, 63, 95); fill-opacity: 1; white-space: pre; opacity: 1;">273.6</text></g><g class="ycbcoloraxistick"><text text-anchor="start" x="637.9" y="4.199999999999999" style="font-family: 'Open Sans', verdana, arial, sans-serif; font-size: 12px; fill: rgb(42, 63, 95); fill-opacity: 1; white-space: pre; opacity: 1;" transform="translate(0,370.6)">273.8</text></g><g class="ycbcoloraxistick"><text text-anchor="start" x="637.9" y="4.199999999999999" style="font-family: 'Open Sans', verdana, arial, sans-serif; font-size: 12px; fill: rgb(42, 63, 95); fill-opacity: 1; white-space: pre; opacity: 1;" transform="translate(0,291)">274</text></g><g class="ycbcoloraxistick"><text text-anchor="start" x="637.9" y="4.199999999999999" style="font-family: 'Open Sans', verdana, arial, sans-serif; font-size: 12px; fill: rgb(42, 63, 95); fill-opacity: 1; white-space: pre; opacity: 1;" transform="translate(0,211.40000000000003)">274.2</text></g><g class="ycbcoloraxistick"><text text-anchor="start" x="637.9" y="4.199999999999999" style="font-family: 'Open Sans', verdana, arial, sans-serif; font-size: 12px; fill: rgb(42, 63, 95); fill-opacity: 1; white-space: pre; opacity: 1;" transform="translate(0,131.8)">274.4</text></g></g><g class="cbtitleunshift" transform="translate(-10,-60)"><g class="cbtitle" transform=""><text class="ycbcoloraxistitle" x="614.66" y="83.5" text-anchor="start" style="font-family: 'Open Sans', verdana, arial, sans-serif; font-size: 14px; fill: rgb(42, 63, 95); opacity: 1; font-weight: normal; white-space: pre;">Frecuencia</text></g></g><rect class="cboutline" x="605" y="32" width="30" height="398" style="stroke: rgb(68, 68, 68); stroke-opacity: 1; fill: none; stroke-width: 0;"/></g><g class="g-gtitle"><text class="gtitle" x="350" y="25" text-anchor="middle" dy="0.7em" style="font-family: 'Open Sans', verdana, arial, sans-serif; font-size: 17px; fill: rgb(42, 63, 95); opacity: 1; font-weight: normal; white-space: pre;">Mapa_B</text></g></g></svg>