<svg class="main-svg" xmlns="http://www.w3.org/2000/svg" xmlns:xlink="http://www.w3.org/1999/xlink" width="700" height="500" style="" viewBox="0 0 700 500"><rect x="0" y="0" width="700" height="500" style="fill: rgb(255, 255, 255); fill-opacity: 1;"/><defs id="defs-d115f2"><g class="clips"><clipPath id="clipd115f2geo"><rect x="81.00000000000003" y="59.50000000000003" width="441" height="441"/></clipPath></g><g class="gradients"><linearGradient x1="0" x2="0" y1="1" y2="0" id="gd115f2-cbcoloraxis"><stop offset="0%" stop-color="rgb(246, 210, 169)" stop-opacity="1"/><stop offset="16.666667%" stop-color="rgb(245, 183, 142)" stop-opacity="1"/><stop offset="33.333333%" stop-color="rgb(241, 156, 124)" stop-opacity="1"/><stop offset="50%" stop-color="rgb(234, 129, 113)" stop-opacity="1"/><stop offset="66.666667%" stop-color="rgb(221, 104, 108)" stop-opacity="1"/><stop offset="83.333333%" stop-color="rgb(202, 82, 104)" stop-opacity="1"/><stop offset="100%" stop-color="rgb(177, 63, 100)" stop-opacity="1"/></linearGradient></g><g class="patterns"/></defs><g class="bglayer"/><g class="layer-below"><g class="imagelayer"/><g class="shapelayer"/></g><g class="cartesianlayer"/><g class="polarlayer"/><g class="smithlayer"/><g class="ternarylayer"/><g class="geolayer"><g class="geo geo" clip-path="url(#clipd115f2geo)"><g class="layer bg"><rect x="81.00000000000003" y="59.50000000000003" width="441" height="441" style="pointer-events: all; fill: rgb(255, 255, 255); fill-opacity: 1;"/></g><g class="layer land"><path d="M81.50000000000003,272.84569777022176L89.69467808520733,260.8785955724864L104.39350984108492,239.52348765601343L89.69467808520733,229.20955564728692L97.04409396314611,205.62232930649296L88.22479490961967,167.9891265677046L97.04409396314611,157.64852801151358L91.16456126079498,122.89844232701637L81.50000000000003,110.72807041280674L81.50000000000003,60.00000000000003L521.5,60.00000000000003L521.5,500L81.50000000000003,500Z" style="stroke: none; fill: rgb(229, 236, 246); fill-opacity: 1;"/></g><g class="layer coastlines"><path d="M81.50000000000003,110.72807041280674L91.16456126079498,122.89844232701637L97.04409396314611,157.64852801151358L88.22479490961967,167.9891265677046L97.04409396314611,205.62232930649296L89.69467808520733,229.20955564728692L104.39350984108492,239.52348765601343L89.69467808520733,260.8785955724864L81.50000000000003,272.84569777022176" style="fill: none; stroke-miterlimit: 2; stroke: rgb(68, 68, 68); stroke-opacity: 1; stroke-width: 1px;"/></g><g class="layer frame"><path d="M81.50000000000003,60.00000000000003L521.5,60.00000000000003L521.5,500L81.50000000000003,500Z" style="fill: none; stroke-miterlimit: 2; stroke: rgb(68, 68, 68); stroke-opacity: 1; stroke-width: 1px;"/></g><g class="layer backplot"><g class="choroplethlayer"><g class="trace choropleth"><path class="choroplethlocation" fill="rgb(177, 63, 100)" d="M127.24021838516813,342.8032392937389L127.68936922761108,344.85730911204666L127.90179696864317,346.1313860294178L127.87719026902121,346.79291675770213L127.80773074812939,347.68720734636815L127.45669537862028,348.84283139376305L127.10565996962293,349.8800197735004L126.84433022483566,350.86820501318175L126.82377265838846,351.9788783655483L126.82377265353989,352.63629175663556L126.94213422581458,353.3467884917243L127.10566002642733,353.7959518987409L127.78748468081662,354.2696124846405L128.1438151992638,354.4244810624109L128.66117964877841,354.6493555264573L129.50621861279586,355.14751171001313L130.51852115305874,355.7885781393765L131.2249525656611,356.0539850178419L132.28646862089374,356.6950495383734L132.89883377341363,356.98087153885695L133.39283738060044,356.98087148998184L134.28677839147213,357.00945365406716L135.1115713408115,357.0135375427044L136.02606986023994,357.15644829639183L137.5326875284622,357.61376406914786L138.16934793432395,357.45043701465585L138.9000745918498,357.0747856897791L139.8189338239034,357.246278482307L140.1207557235737,357.22178026358563L140.99445064663567,356.96453853255434L141.721439604539,356.731797054447L141.93355595719137,356.59296979063436L141.65198007714122,356.0009041316132L142.14598370615363,355.46191941490633L142.733742126931,355.44150474920633L142.8969564942138,355.11076131417224L143.79120892940753,355.30267128202337L144.28926178840152,355.5435829395582L144.70975666219474,355.78041034925445L145.20376029645774,355.8539083185508L145.7712726839865,355.87840682658606L145.81612548346766,355.2414223045231L146.42849064498193,355.2455062235383L146.99195381537538,354.96376448056986L146.7103779507965,354.42068917324195L146.54685215561454,354.13486167365573L146.61631167232056,353.8286186669442L147.2040701083999,354.18385934735744L147.60431894781948,354.187943306636L148.12292932103787,354.18794327072766L148.6169329657112,354.1226147060383L149.08632986589748,354.12261470370015L149.84166332271818,354.102194992294L150.2864534163054,354.50643725547764L150.68670230103567,354.60035317658964L150.59263602847776,354.31861009748553L150.31106016781305,353.96336488998395L150.42942169261067,353.563204849256L150.66209554669626,353.4937871117326L150.92342532788288,353.8245346933851L151.36852699898057,354.1552765827204L151.69931627460613,354.3716916102889L152.0786961287055,354.8902635289764L152.36058347648893,354.9392657989363L152.7605208499911,354.93926578293366L153.32398401542792,355.343505525602L153.11186767084286,355.60074785851316L153.4180502555661,355.9355740189837L153.16076967197972,356.19281526208056L152.33597671022986,356.25814770706535L152.1973691366573,356.7072986983735L153.06670337990494,357.0625365912367L153.60992048460355,357.797507725345L153.93634915949616,358.5283912446671L154.5487142750308,359.075529215484L155.18568621746152,359.8309065855642L155.63483706198517,360.5903613517576L155.9656263772589,361.01500130293743L156.50448280827885,361.06399900077497L156.8349606482372,360.9251733748962L157.28006228706005,360.76185001948005L157.51678533984182,360.73735237138476L157.70460639119844,360.7414361091967L157.82296792217792,360.7414360874761L158.90504145584433,361.4273912578381L158.9050414625726,361.94594000685544L158.9987962179444,362.77479524857563L159.44794708128165,363.19942929322156L160.24813329554402,363.20351301402445L160.2929860373165,362.9911949197511L160.43595429719272,362.52164682320375L160.67267738226232,362.3093302540246L161.35450207273155,362.2399192101954L162.27304980646613,362.24400053603955L162.93026777989232,362.03576729959354L163.79991352221677,361.7091227410325L164.36742590036312,361.57029772877394L164.81252748702084,361.4518888597343L165.4697454822643,361.45597255407677L165.4002859324893,361.6192952295989L165.3554331138003,361.9990186791038L165.63700898460155,362.4726519993467L166.294538426846,362.4971494066914L166.7190825243792,362.5706440371962L167.4744159596501,362.6196411905345L168.10702715233847,362.6931357876311L168.62563753304087,363.14226733661354L168.79290105063126,363.66489423578247L168.74399906409775,364.34675328592846L169.099083627616,365.1960123454622L169.47472575316712,365.5063179416123L169.8503678151414,365.5553143298464L170.4178802217175,365.5104015966728L170.9118838151356,365.5348985486781L171.23862396018498,366.0779313914153L171.43049423309645,366.1514244186584L172.15717168435435,366.46172840139906L172.48764952536447,366.58013373848684L173.12462141919985,366.74753262632504L173.73698658755717,366.8455246483852L174.32505649314194,366.72711943188006L174.67609186484498,366.6372946094507L175.17009551959353,366.6372946151546L175.75785393572593,366.498473622603L176.63154885855832,366.19633699748374L177.1012572064738,366.19633699063405L177.73386844006893,366.363736237063L178.44029984209533,366.8618565805718L178.77077768466,366.9353493680698L179.8079984854356,367.4375469604353L180.37115016372982,368.4296947364735L180.1384763200644,369.06254045216997L179.92635995518907,369.8423698715229L180.08957428943717,370.2669874607968L180.65708667493197,370.7405992444753L181.45727288279483,371.5449185655468L181.95127649685065,372.6309498356437L181.6245363912646,373.10455653239586L181.4124200657949,373.38627042564815L181.03677801450408,373.8802880338214L180.8243502091467,374.1864969564695L180.80005496411312,374.5621121579824L181.1753855766276,375.0112191939067L181.36320664389592,375.24802029190147L181.5307816332496,375.39091657734264L182.16775349602761,376.4075232787877L182.00017852677516,377.0444316893399L182.1920487959054,377.53844357006056L182.87387348665928,377.6119328271905L183.93134023492163,377.7589112849243L184.70691975233768,377.7629934458536L184.84988797287062,377.62009843762377L185.20092337849758,377.29347881164097L185.4133511373206,377.130170094822L185.78899326778833,376.8239634068651L186.2829968704517,376.6851501117367L186.63808149316932,376.709647003176L186.5440152086819,377.0852598400606L186.4256537035606,377.32205912757405L186.54401522333825,377.6772564307151L187.6955482679703,377.89364186677L188.6876047586121,377.897724060197L189.36942944278107,377.8977240376611L189.8388263053111,377.8773106862195L190.1696156462306,377.9263030450483L190.05125410841117,378.35090653697483L190.28797719533964,378.7755094501656L190.73276734208096,379.36750391827553L191.15762292123088,379.9349994880218L191.53295357876726,380.4330888749393L191.55756030988857,380.7147953590011L191.32488641304462,381.06590676442926L190.99409709437765,381.20880020840775L190.7819808117276,381.4415142649769L190.7371280416137,382.0784125714836L190.73712802992463,382.45810122345347L190.66361929874836,382.78471567074996L190.78198084185473,383.3522058431453L191.08816339177835,383.8012991174185L191.41864122104647,384.1809862149014L191.46785471908282,384.556590780101L191.25542692790293,384.95669019726677L190.78603002572316,385.450691171808L190.50414270157128,385.94469154928214L190.52470025255863,386.32437691710146L191.04331061354625,386.5121778692923L191.82293927025034,387.0143420580003L192.9047013378326,387.3001264291494L193.23144146117426,387.37361378270657L193.96216815813796,387.5654976739524L194.69289484523415,387.87169525331683L197.0486006995751,388.63922855105716L197.7509828675941,388.6392285792258L198.38764330401614,388.69230293585883L199.89426095721586,388.98216921485283L200.41287133864904,388.93317752135124L201.68245446021552,389.2230436784572L202.36427913228306,389.4843315274053L202.7888232236972,390.1702113048072L202.90718473977415,390.38250724057923L203.14390777512858,390.69278570271575L203.58900940943164,391.1418733356016L203.6379114509709,391.4970600654586L203.59305866511664,392.0359644821015L203.61361620551295,392.7218425360152L203.6136161923478,393.2158379257063L203.54415663102088,393.6159329015907L203.19312131016474,393.87721965970144L202.69911763175244,393.6853371434488L202.5561493648633,394.06093672548224L202.46208310689474,394.6284185076426L202.74397041794742,394.7468139394371L203.0501529905822,394.8407137486947L203.5930586539875,394.844796413504L204.01760277919004,394.9386961399231L204.18112855122712,395.3877823876316L204.11166903863628,395.6245732038855L203.85033921166269,395.78787723235513L203.24202330543037,395.92668566312926L203.05015304238538,396.020585463103L203.09905502454814,396.469671523111L203.59305861736635,397.1310528608387L203.71142017958658,397.7924341829847L204.11166901387088,398.54771544747217L204.65457463666553,399.00088426754786L204.65457462723015,399.25808818004697L204.2543257962232,399.6581834583374L203.85438840399888,400.50328269725037L203.8789951526649,400.76456970227855L204.06681625105398,400.85846942735174L204.34839207435323,400.6502566341389L204.67918139681493,400.4624565865726L204.93615051855645,400.43796110777L205.14857829123076,400.2501611030521L205.50366284033208,400.2991522770278L205.9733712216625,400.77273472970927L206.0671260561624,401.0789303189896L206.27955381784002,401.7158172077467L206.27955379931885,402.001599964569L207.03488726319188,402.28738277788244L207.69210518185074,402.45477036451484L208.51658669369982,402.7895442617731L209.12895182872586,402.98142744640404L209.64756222107576,403.12431895540095L209.8802360479262,403.0998234833845L209.83538322351083,402.7691314650982L209.7618745329057,402.6303226538353L209.76187452325843,402.25063928847646L210.16212332551305,402.06283960116576L210.6355694603706,402.2547219402608L210.61096270472854,402.8222057644251L210.58666745352448,403.26721056897253L210.9171452706231,403.6019854686701L211.2927874348169,403.48358929727516L211.8360045208473,403.43868039329215L212.30540143831865,402.89977494152424L212.4443204740581,402.3322916894604L212.56268199182307,401.8872873434665L212.65643676671488,401.43819989656794L212.86886459617384,401.41370412117743L213.38716348341825,401.5116868957569L213.6241980249434,401.6545782722891L214.2322024974303,402.0097653551748L214.1873496508076,402.2220610870551L213.8363142902108,402.43435689194814L213.59959129083867,402.76096611759215L213.74255953466292,403.18555802714457L214.21195642152566,403.352945783282L214.82432160259475,403.21413685729794L215.2488657178347,403.14473238642086L215.5509990632262,402.93651851054284L215.90608366631838,402.69972705806657L216.33093921757825,402.60990926921085L216.65736783921705,402.658900813906L217.13112541324148,402.80179233535654L217.36379925312826,402.9650972610897L217.81295010279396,403.0630799087975L218.02506644871755,403.2508804218136L218.33124903287307,403.4672591535492L218.56392286394055,403.6101508369726L219.22550147527292,403.7530424626784L219.53168404711306,403.7530424687045L220.33187029472123,403.82652966741074L220.47047784353413,404.72470669352174L220.14404922497584,405.030903361266L219.55597933474763,405.9005037164242L219.53168405543846,406.2067010232675L219.6254388804443,406.44349424814806L220.21350872833233,406.70478263523654L220.5932000648208,406.91707987121356L221.0868922387686,407.15795551329114L221.5076986217253,407.370252930822L221.90763597965594,407.5621374375823L222.07489949705467,407.63154301210534L222.213818560424,407.68053434893164L222.26272054774074,407.41924548187086L222.26272052477765,407.11304750804635L222.40163962177377,406.9742365772644L223.08751348377626,407.09263335767315L223.29994126547044,407.7091127703825L223.53261516234915,408.43990796250813L223.79394494699497,408.65220588961085L224.1244227498382,408.79509823411627L224.52467161859283,408.77468520518573L224.9003137407679,408.5174778186097L225.18188954282692,408.35417141469065L225.48807215927133,408.16636987685615L225.62699116926217,407.99898141190295L225.81481223340114,407.9295758443871L226.42717742992798,408.17045201953573L226.99468978875484,408.5011469525178L227.63135020410388,409.23602548577253L227.8397288097325,409.3789192304739L228.10105854795097,409.44832383825303L228.5256027053291,409.47690237288356L229.15821386424213,409.4319929257721L229.4441504368417,410.1627909656692L230.1708278828937,411.4406677765999L231.53852650583826,412.1061466820922L232.07738289620292,412.20004833095373L232.90217583902904,412.5103322341274L233.4204747583956,412.67772378398865L233.93908513300755,412.7757077865742L234.2698744202629,412.8247010127581L234.5268435517691,412.8247009805064L234.88223957633392,412.9226850335784L235.23327496922838,413.11049004494305L235.8702468493948,413.4697680741218L236.55207153555563,413.77597097296126L236.85825414498453,413.9678586430479L237.1398299794103,414.06176082985894L237.2438635310727,414.1294860130977L215.681819715196,420.553352519858L215.63260619491228,420.34104742184826L215.46939188643302,420.17365121233274L215.1632093332081,420.12465915124193L214.80812472123165,419.9123520553534L214.45677790456676,420.0062575334552L214.2935635757988,419.95726307079065L214.29356355985382,419.78986708605396L214.289514336425,419.3203453160367L214.33841635124384,418.8957352523134L214.40787591183994,418.32822922816007L214.0568405209057,418.14042201424365L213.53823016506374,418.066932087015L213.23204760500718,417.9730273500062L212.7380439146773,417.49942794314217L212.15028552402657,417.2136334390031L211.72574143511486,417.3769442337879L211.44385411927698,416.8543507909731L211.0641627594104,416.33584187556824L210.7825869525937,416.64204769937527L210.38233810183203,417.01766013264876L210.1702218015874,417.0135791677785L210.0313027282015,416.6379655255573L209.888334468305,416.0704632084107L209.79457964753692,415.5029620799394L209.41893754889838,414.915049918866L209.1333124981221,414.3475510247841L208.75767041796837,413.80046763650734L208.30851952877242,413.56367015209156L207.70020359653748,413.18397874248615L207.3451190523273,413.0900755935238L207.20215078296064,412.97167827458804L207.1326912394527,412.6164828921698L206.28765222602965,412.28170233342297L205.55692555596448,412.51441560064853L205.013708440572,412.95942934587595L204.63837778886537,413.0084225719469L204.42595001349125,412.77162557984104L204.33219520285144,412.2490402387774L204.16866944413846,412.03674036454964L204.09516073194823,411.8734324730239L204.07491464086056,411.51823948699547L203.69522330952606,411.28144351718396L203.4625495016326,411.42025458926173L203.08285820343616,411.5386525892647L202.7807247869335,411.65296726907354L202.4745422460344,411.67746383995086L202.2378191931212,410.7343650524792L202.3764267279057,409.7422757943906L202.16431043596725,409.293182495362L201.78866832108403,408.7501888463449L201.5519452691738,408.276601477742L200.9884821360269,407.26002272143654L200.4698717536188,406.5047336501702L199.71453833879247,405.62696696752414L198.04470634491344,404.08781698856416L197.80798332861622,404.34502224697144L197.76313050406634,404.9125070404817L197.9020496041186,405.47999287074L197.69367098728605,405.83109898913773L197.26912689025147,406.25569286867136L196.3505791302333,406.7701047481509L195.85657548014012,406.69661782595233L195.4563266441428,406.39041971188664L195.15014411820442,406.1740399353337L194.7255999662332,405.91275180078935L194.49292614661067,405.4187529759764L194.32566264493153,405.2513653501327L193.925413750943,405.2758609265735L193.54977163824952,405.5330666851553L193.100932273304,405.60247141270196L192.93740653345242,405.5289839903421L192.60692868729456,405.0309033503896L192.34964811146332,404.8431023792456L191.78213572947863,404.1327259793897L191.45539561279614,403.5407463043487L190.9819494998156,403.1406497114711L190.63091414483924,402.99775816246375L189.6877596285069,402.5445875270951L189.33672426133768,402.022013349447L188.98132822288784,401.7158172366846L188.46302935206154,401.4055390920189L188.01792766536062,401.0299391353858L186.67483583843347,400.14809610222557L186.15622550589634,400.1930046103868L185.75628809184482,400.05011341004246L185.11931621118083,399.743918060108L184.67421457410262,399.3397404171539L184.18021091678202,398.9845538791579L183.75566680576526,398.8416627773518L183.543550506161,398.7232673320271L183.07384214353826,398.55588068769646L182.93118537890047,398.48239377714464L182.31882020770828,398.52730240775975L182.01232612729885,398.7640933753601L181.63699548973125,399.0457928919617L181.4734697106917,399.4663011601706L181.2367466827688,399.7724964604033L180.95517083043524,399.96029612081554L180.72249700461316,400.4093826871328L180.55492198599563,400.8788825070752L180.2487394181793,401.2095738616609L179.77934253085897,401.7239826149759L179.24048605119796,401.67499102740146L178.84023721062528,401.2953086173742L178.2727248864495,400.9646172440642L177.30932436616365,400.65433926736256L176.46023614290021,400.46245655549683L175.70895190905287,400.2909872848996L175.35386733288158,400.2419960660282L174.69633787662013,400.642091244432L174.20233424499827,400.5441088441358L173.65942863019143,400.3767219280964L172.6471261128501,399.5969445231482L172.43469834197654,399.0049669592302L171.82233316292795,398.74368038095736L170.3403222758964,398.29051145393805L169.376921758489,397.5311476830161L168.7399498050024,397.3147698584266L167.8456973465968,397.0983919825066L167.2579389378056,396.29411973774177L166.9028543578297,396.0573289116382L166.4783102453467,395.5388385705421L166.17212767513283,394.57126203650995L165.53920500529398,393.97520199543146L164.739018745695,394.2079105162809L164.1266535969018,394.63250112538026L163.63264995575472,394.9836047402547L162.76300426542298,395.142826354666L162.05657279265517,395.26122177746845L161.3258461543335,395.0897525131195L160.358396413838,394.87337466081385L159.6560141721965,394.7059878414315L158.87638546696303,394.4447013245387L157.86377150279625,394.1344236264126L157.1127987712595,393.91804582025816L156.66364790726,393.4689594022529L156.21854626083473,392.9708813863077L155.65103389509053,392.4728035916769L155.25109653246247,392.4238123878348L154.54466510262284,391.92573404666996L154.0998749349062,391.33375564534197L153.62611733502823,390.8397597832904L153.10750699632067,390.29268941195284L152.5932572788363,390.00690629134397L152.26246799653597,389.6517187061782L151.53174132369776,388.398353899245L151.41337977028394,387.99825639696206L150.80101459922003,387.4552666167918L150.04973039181675,386.932689842886L149.7884006020949,386.52850870232226L149.97622165837745,385.82221145682325L149.78840062170474,385.3976164486153L149.5516775362778,385.1853188406698L149.3395612403613,384.7607232973295L149.15174021017324,384.3361273607409L148.53937500605696,384.11974588923954L147.575663025714,383.7604717970123L147.2000209173139,383.5726698232215L146.5876557323712,383.28688333739467L146.28147315088688,383.26238692016193L145.9958481255621,382.9071954479556L145.83232234256107,382.90719544686965L145.4569916990043,382.9725180315308L145.1751044057815,383.06641918745436L144.79946229380846,383.34812370973606L144.58734596821878,383.13582511709785L144.5627391893555,382.54792035790757L144.48923046098395,382.19272706065436L144.23194990054142,381.8375346309108L144.0444403023822,381.5313324884453L143.43176367718755,381.05774122398077L142.70103696830938,381.00466597861475L142.0192123260122,381.098567582905L141.57037296086148,380.85768901822377L141.2436328644111,380.7392907558721L140.96205698688829,380.73929071353905L140.60666093411243,380.73929074168547L140.16187076125013,380.5474050976309L139.73701518707134,380.5433217032537L139.2430115472996,380.449419910252L138.53689160892606,380.20854084393795L138.23070902959208,379.9717437964946L137.40591608817246,379.5226458864031L136.79355094191135,379.4491570534866L136.5814346349197,379.63696239894034L136.32415403451628,380.0370669815225L135.8544456784904,380.5065774383786L135.59342734608163,381.06998890554814L135.0053574411082,380.996500415205L134.58081333804344,380.9025987831518L133.89898864352497,380.8985166375425L133.3806897628182,380.9434263663279L132.81722659656748,380.9189298122873L132.22915670922345,380.93934301048176L132.42102697546898,386.31621148229L132.06594241130406,386.3366244463945L131.5024792403159,386.3121281796137L130.7268997693859,386.28354986928656L129.87781154120069,386.25905477503244L129.17138008650582,386.49176488451224L128.46494871520645,386.76938405692107L128.02015853405038,387.0510858187329L126.88918297121884,387.5205885904624L126.2768178206571,387.96559541986176L125.80742097399624,388.1738092971478L125.66850191201061,387.81862072735066L125.45607410560044,387.13682135923347L125.07638280731311,386.5693351478666L124.20704850715353,385.92836073636687L122.70043087606925,385.4261948459901L121.73703033219596,385.373121360134L121.14491123569042,385.3731213759973L120.29987221303611,385.18123669683257L119.43022646957209,385.1077490296555L119.00568239764726,385.1036656693561L118.34441520826792,385.26697192507504L117.8055588297575,385.31188121457023L117.75634532335934,385.4506911767427L117.99306835743397,385.8303768387549L118.3238576697378,386.18556728440836L118.67489310012911,386.96535086894187L118.69949980208006,387.10824302990466L118.20549616327594,386.8673671794236L117.0745206335269,386.27538443444143L116.22948164255118,386.0835012948136L115.59250971830713,386.26722021797633L115.19257236177992,386.5040130331739L114.60450245272662,386.61832642154843L114.01674403761174,386.56933513221657L113.47383839920869,386.35295529400184L112.55529065464,385.90386447485696L112.20518977046814,385.8212867173558L111.82861321175375,385.73239416440623L111.47321718262137,384.9771044274033L111.31000282973312,384.67090463155375L110.7222443810418,384.6219131318947L109.75448322752479,384.61783102672865L108.95429695510555,384.4014497244915L108.06035597158271,384.42186276046175L107.23556305737276,384.39328424677467L106.74155939752268,384.3932842550161L106.43537684399391,384.38920215461184L105.920815622834,383.3971153587673L105.65979736716511,382.7153097290892L105.07172743507189,381.9314360131441L105.37791003973169,381.8865263909803L105.32900799522565,381.6048207952123L105.42276280770622,381.4170177754372L105.5414358147797,381.2047180630859L105.68004340310421,380.59231484923646L105.51682909045783,380.02481925657287L105.37386083216887,379.5267292391287L105.39846752987216,379.1756162320377L105.63519062283345,378.60811814897454L105.61058385537302,378.2815008552779L105.2801060095803,377.7834080594142L104.92875915458441,376.90970195539666L104.69203610098305,376.31770363583183L104.218590029626,375.6807923455117L103.86755466154315,374.9254812867828L104.00616223159992,373.88845256058886L104.26749199092251,373.390351465759L104.52477261168266,372.782014650988L104.36155826423354,372.259412700133L104.03076898706539,371.85929762758235L103.76943915822562,371.5285869804169L103.46325659531703,371.0549794051748L103.51215861667876,370.8875817785008L104.14508127395285,370.6344444987037L104.96987423985217,370.683439542318L105.33897527687881,370.5782218116469L105.70060092324817,370.4752136428857L106.28835933070923,370.3363978197017L106.47618039708004,370.1689996500828L107.08854555364343,370.124088026555L107.62740196534904,369.9852720019185L108.5459497280016,369.6382266437423L108.7583774774256,369.54432202421697L108.64001601565997,369.21360777972546L108.5216544237027,368.8094033912403L108.45219490289813,367.8213411369926L108.2397671405349,366.73528420187625L108.02765081521946,365.97994141936056L107.67225478461458,364.77546694865924L107.3906789026307,363.6648942541675L107.2723173811541,362.5093980826107L107.46013844982792,361.803031468292L107.50499121979902,361.14157799477204L106.79887130624698,360.4801192730303L106.35376966149363,359.7696595649394L105.99868507058181,358.8019604687205L105.9740783628038,357.8791698770645L105.76165055001019,357.17278130333705L106.16189939593681,357.43410404469387L105.85571684024166,356.2050645188775L105.88001208205966,354.93109797352076L105.88001209664381,354.3676076619824L105.64328900306546,353.3998704032841L105.45546799510399,352.3382082382875L105.40656595699588,351.72162380110166L105.45141875297165,350.3087804040621L105.33305722675294,349.34101103667683L105.31281118577778,349.1041714076389L105.26359772234471,348.6794905241427L105.38195922160824,348.1363920135485L105.78220807529985,347.52794894696666L105.99432438227225,347.40952729486435L106.10863669009089,347.3156105878492L106.93342964927132,347.1277672578124L107.82768214210878,346.87459101522023L108.58270408258426,346.59282477278697L109.40344780196543,346.2661410876558L109.6401708688561,346.2457248619403L109.9463534685053,346.12730183919444L110.41606180904273,345.9884623524149L111.4283643466515,345.8047009458201L111.96722075882926,345.4045129518788L113.12280303113621,344.7960547350629L114.2983198886889,344.14268027963396L114.46184570633736,344.1181792815234L115.5436077138809,343.3218684478724L115.63985435467859,343.36801798259523L115.95039763833827,343.5169768166194L116.43786024324291,343.7506497488025L116.74404280432114,343.7261486601343L116.93591307400871,343.72614867422726L117.31155520118347,343.68123089619775L117.45016277491237,343.7996518007663L117.82985407147942,343.7792350781649L118.34441521341205,343.77923508315365L118.88732088992535,343.5464676959169L119.524292780943,343.03192890767383L119.75696661741114,342.56230585290047L120.0631491563729,342.0681742719598L120.2752654820431,341.6189687597224L120.3204297417943,341.0064084861087L120.38957778193833,340.41834627061615L120.55715278763586,340.0630565743125L120.76926913405805,339.6383390155257L121.2389774912121,339.2626288186697L121.77783393791054,338.77257001291053L122.20237803666382,338.4172742231143L122.85959600305995,338.27842407739223L123.25984481765184,338.282508650868L123.65978219262547,338.87466359548466L123.8273572059093,338.99309508746467L124.39050887775261,339.20545551103316L125.19069512417761,339.6832634937509L125.94602854326718,340.0630565386072L126.84028101867938,340.9859862986203L127.26482511153748,341.8844108451645Z" style="stroke: rgb(68, 68, 68); stroke-opacity: 1; stroke-width: 1px; opacity: 1;"/><path class="choroplethlocation" fill="rgb(246, 210, 169)" d="M485.74170759983787,139.66964277157416L486.9175358563509,139.9817840334063L487.5052943127672,139.98589679945417L489.2688810282863,139.99412232014345L490.5876775931057,140.3062588878127L492.6614961529664,140.43357588541272L494.14350701592593,140.6307091996386L494.9888575356184,141.08659988805735L496.11952158866893,142.10921000197087L496.85024822520745,142.61022596910342L497.7198940093538,143.11123043151403L497.4383181358392,144.58133788977028L497.017823261269,145.34100532605737L496.80539543590237,145.97745464421027L497.27510385968674,148.1617535276136L497.51182686360517,148.75706907223739L498.78545922793506,149.9230063782831L499.41838186965737,150.8754202313896L499.53674340468194,151.75390156744106L498.87952548599554,152.5789916973237L497.7485499656798,153.59284825379387L497.27915305258176,154.08951350117573L496.834051417416,154.70518245495344L496.05847197183937,155.46039480610665L495.23367900769085,156.30996906128013L493.72706133312835,157.91462351197768L492.8577270611248,159.12114229758228L492.5758397457294,160.59020145973673L492.2494111760127,161.6078126700688L492.1553448964985,162.69923645996738L492.15534491401104,163.54854518865497L491.84916232574756,164.8778434209384L491.71024321806743,165.7516831485445L491.66134123318716,166.3465424823705L491.6859479615157,166.77317948591127L491.64109520384494,168.003850491043L491.80430951999415,168.97603894092822L492.0899345294939,170.39936586589693L492.32291990005143,170.7316022374904L492.15939410697723,171.4657842703328L491.9961797431167,171.58062597079604L491.7594567375009,172.00717042185994L491.66539048116374,172.57725381830065L491.1713868023183,173.18835280753993L490.6325303756893,174.23004919720634L490.0650180142421,174.65244107401514L488.88918975739307,175.1445577037128L487.59499988605364,175.92371913025818L485.97438142146837,176.9324902223167L485.3374094952387,177.42866781066178L484.41886175947434,178.18314165318873L483.71679106113163,178.72440060738214L483.4308545230024,179.22052333285993L482.9166048248214,180.0733623108558L482.18556664607263,181.2992644108031L481.8793841252135,182.07823536595197L481.9285975442251,182.6972937619004L482.4715032267484,183.361415510335L482.65932425509567,183.74268201762376L482.8714405363501,184.35759538251975L483.05926162420735,185.0216939438783L483.0592615853767,185.75545868925414L483.1084750966967,186.2760538108306L482.8471452724416,186.86631876145952L482.37743691220396,187.3376963821338L482.6593242849194,188.1943712041263L483.063310814843,188.52637386465938L483.46355966509054,189.47316525541115L483.43895296245455,189.94860032414763L483.6513806896478,190.61255742497656L484.1696796029504,190.85025604295714L484.16967960614363,191.65352614063585L484.0064653154677,192.1985885031636L483.88810379049823,192.48137488392135L483.7451355357707,193.2149327085766L483.53706843637724,194.06731522997552L483.36949339980004,194.3992253535983L482.94899850821844,195.4359641191222L482.7122754825498,196.73901250577362L482.47960161550156,198.15670349407975L482.4101420704744,198.53775866116686L482.3163873074576,198.9597774363306L482.3858468102427,199.79148777879672L482.5979631704071,200.43060943215917L482.6225698848194,201.11480412161052L482.6674226299893,201.44664901837595L482.7163246925579,202.37250045155835L482.6225698524064,202.96241575691263L482.5777170770482,203.5277453785499L482.48365080176086,204.02751006368072L482.38989602577414,204.994256803251L482.03449995923216,205.60868935139212L481.73236661401154,207.55022730309935L481.16516575383093,208.98786400572135L481.0710994347937,209.4629657606617L480.86303238283733,210.57287370843497L481.0751486344404,211.35511370785704L481.47539751727277,212.44446604045754L481.5202503131442,212.56323316377024L482.2307309128991,213.82043313620073L483.7575946484315,214.93837939592774L484.2758935387965,215.6959225077807L484.39425502009874,216.24052484812876L484.91286541191937,217.47300996948832L485.0066201539057,218.32467344396346L485.0066201737322,218.84466838081997L485.1252931854771,219.69629386044824L485.1047356975389,220.47827877175342L485.0109808486418,220.99823753145827L484.916914610133,221.77610969026958L484.75370030687054,222.39019844726323L484.7985531124988,222.9838173363381L484.91691459068363,223.99906725769767L484.91691458170743,224.49851091370164L484.94152136722676,224.92424013055384L484.9658166376797,225.6324294442199L485.27199921573543,226.2259682655753L485.90897105975125,227.31481662145032L486.5907957824122,228.35858150023043L486.9910446149119,229.14037315953505L487.74606653088273,230.08993143088375L488.14631542210753,230.82255958495156L488.19116819262604,231.8171116040599L489.134322640092,233.21680332905288L489.1586179159965,233.61786977433604L488.38303843492895,234.53457520918806L487.77067330227135,234.72282695740546L487.3461291824337,234.8619709387705L486.94588034919906,234.95609604437982L486.68891127177255,235.02566278143587L486.33756438328487,235.18935376941377L486.1703008419886,235.42670776171872L485.5373781600504,235.91778243761237L485.2558023809747,236.1551313548815L484.87611100160484,236.45795441883516L484.07592484829377,236.95310215734563L483.86785772196174,237.37867121782884L483.44300216810853,237.7060396550202L482.9736052745518,237.89427396449406L482.7368821558201,238.0333952822667L482.17341902698263,238.2911878555335L481.8183344552714,238.5285203958164L481.630513370062,238.83132263904005L481.2997240951423,238.85587800784157L481.067050247397,238.85587802260815L480.87922920864776,238.4753312071171L480.6873588909632,238.11932632835408L480.57304661434057,237.69376643843034L480.31171679408385,237.26819154555903L480.0996004795386,237.10041286733298L479.74825368920096,237.00629366959225L479.3726115294548,236.83852347371712L478.49922807732554,236.71575875435823L477.84169867411015,236.26561457378L477.44176130820836,236.2615265467816L476.947757661444,236.23696936622045L476.59236158642443,236.04463799963182L476.56806636094507,235.7172633772677L476.49860679810047,235.09932722982646L476.00460317697514,234.91107759208444L475.7230273340748,235.11978736447713L475.3473852111316,235.66406008611716L475.2044169944116,236.13467180067224L475.1106621503677,236.32290488094532L475.06549790161216,236.70347543842723L474.9919891707112,236.93673099040126L474.8982344303578,237.21908832274642L474.4777395095622,237.33775353903923L474.31047596414555,237.38276881540583L474.28586920752497,237.1249694622979L474.40423078454023,236.84261141672667L474.42883751890673,236.41702593998124L474.1918029802746,236.15513130654878L473.6735040737694,236.224695570034L473.4408302493175,236.5275180482291L473.29786200874935,237.09632499468023L472.99167937295636,237.30910927305766L472.35875670401344,237.35412450058664L472.2403951624092,237.23544954570792L472.30985470248964,236.61754083409775L472.4039210007967,236.2656145450957L472.497675796401,235.90959662692137L472.2403951892085,235.57812290292733L471.67288279816603,235.59858274611116L471.1097311400478,235.64360027391643L470.5462679750058,235.61904260980754L470.1460191494655,235.50037136549236L469.74608175701985,235.3080358537801L469.3215376329792,235.28347791610454L468.8029272530803,235.25892974923292L468.4026784619564,235.25483194596364L468.7783205336771,235.47172554356865L469.1091098818438,235.70907756569497L469.2028646811083,235.80320027854887L469.2969309037469,235.96688756330505L469.2969309297485,236.1796788144526L469.2723241997849,236.4865994305953L469.0396503026283,236.65437140359907L468.66400823351546,236.72394443581194L467.83952675480964,236.31881690236443L466.94527426622705,236.05282375512067L466.2840071517474,236.00371879283074L465.43896811854677,236.0691953164063L465.01411254253867,235.9996209990141L464.54471565242653,235.8523055450163L463.93235046756377,235.5658489241382L463.6507746423615,235.5208312992737L463.6015611762291,235.94642791446992L463.60156119142823,236.13467179148108L463.2710833171003,236.32290488190029L463.0138027838872,236.62572649573258L463.01380275831934,236.83852343270186L462.98919604087945,237.19453174821538L462.98919600825093,237.45642817390709L462.99324519435174,237.7387714646694L463.2751325390894,238.30755838276121L463.18106626719424,238.61445024214862L462.82598168327297,238.72903276126937L462.2871252585419,238.79859182024586L462.0504022074201,238.82313749889283L461.7931216690681,238.65537611510206L461.2256092640154,238.53261789829276L460.87457388178,238.50806223393352L460.2129952896248,238.52852039058013L460.09868297652645,238.60217730447715L459.9803214085607,239.0031805809652L460.11924049238235,239.37963398815444L460.66214608045055,239.66605892335087L461.2502160322835,239.97703612048156L461.7236620973382,240.35756658299383L461.7685149263642,240.7339956295938L461.6501533917947,241.1145178262617L461.13590366157723,241.1104303946568L460.54378456020186,240.7544621919849L460.19274925267604,240.39848061535443L459.5311705543337,240.27572849814646L459.55577734078014,240.46394891016914L459.6046793457788,240.93858278331373L459.5803840915622,241.15134356845763L458.87395260761855,241.4786766472372L458.1921279745822,241.5932400535133L457.74733779615974,241.66279350639473L457.3676465000861,242.0146651798383L456.68582180331344,242.50973412476523L456.61636225931727,242.72249524785786L456.7101170427412,243.12345155032924L456.71011707029885,243.36075149139606L456.7836257921556,243.6675993366172L456.5715094553261,243.83124975972922L456.0039970904961,243.47530879463395L455.3710744458855,243.1643624074552L455.0854493570669,242.97615640727068L454.4525266448624,242.83295763301544L454.4279199117025,243.2789203847043L454.82816881780695,243.58986583660388L455.0894985705867,243.94580559653414L455.0894985443873,244.2976548596113L454.6892497191867,244.3917545282856L454.5708882038317,244.2976548484199L454.17095081417267,243.86807272681207L453.81555480333554,243.704422471123L453.39101064692704,243.77397171554597L452.97051579810704,243.9826285045328L452.5705783888651,243.90898272096774L451.9825085152976,244.1462774636396L451.55796443662007,244.2117388798879L451.2517818372067,243.74124549361022L450.7331714471401,243.168449570637L450.05165828454665,243.30755980967623L449.9086899523636,243.66351222625204L450.4515956362362,243.9499024666604L450.80263099826186,244.25674525765612L450.7088762176557,244.4940376958897L449.9821987597396,244.3712997558522L449.4881950915158,244.4899506787461L447.6018861450831,244.62086225921917L446.56902604764264,244.09718384504555L445.838299369383,244.73132857949776L445.8629061163345,245.9627542182038L445.7934465805329,246.12640406167176L445.5115592610971,246.36368423482833L445.18108143112363,246.47823212979242L445.01755566642254,246.5027724460001L444.5235519978814,246.38004129165515L444.02549920497086,246.09776686356966L443.55610230530135,245.9750343223534L442.49863547327163,246.208218939522L442.6375545837757,246.68277670636502L443.27452646985233,247.415054878275L443.5807089961751,247.8200556722505L443.72336579250384,248.22095563662495L443.53554476059816,248.38458562188816L443.06209866767415,248.17186748740465L442.3559787178573,247.7423310613388L441.60469451482476,247.71778178769407L440.92286980725436,247.59505472520294L440.49832567710354,247.42733451989739L439.97971530543657,247.2350541954091L439.97971531373184,246.5518628706236L439.72243473001777,246.1264040284371L439.36735020437345,245.65183905742626L438.8038870170871,245.7909299076029L438.87334657065,246.2164023595937L439.17952911939676,246.76050359228492L439.32249736088943,247.30460649464038L439.39195691100565,247.75460083858616L439.3224974047375,248.01232316862402L439.1346763367435,248.15550149294774L438.87334650868337,248.1555015248673L438.4282449160323,247.9386856089086L437.93424125773834,247.74641770646656L437.4854018664911,247.77096697300814L436.82787248763077,248.0491419359117L435.90932477529117,248.3559501655666L435.1785980396214,248.94093387956642L434.7581031563238,249.3663698731825L434.4519205825203,249.76725311013828L434.1457379862519,249.76315695356132L433.9090149135284,249.33773521388719L433.721193916453,249.05547368251666L433.2966497794996,249.10047419670053L432.59021838508136,249.33363894840815L432.4512993054061,248.814114588284L432.45129927230437,248.433673512735L432.07160798491043,248.00823652357022L431.2714217968906,248.52367590236264L430.75717211897756,248.7568443149076L430.050740638854,249.15774388500014L430.0018386849953,249.34590820207848L429.3894735300841,249.76725316238674L428.732255584494,249.41136024366597L429.5567370439027,248.89593324694303L429.90808391176245,248.37640268640277L429.69565611319985,247.78323673423685L428.8017150969654,247.99187051782621L428.589287288113,247.42733451786333L427.9769221491577,247.09187234703583L427.7644943756373,247.70551205470116L427.6501820440972,248.01232320700169L427.2013426425248,248.22095563581524L426.77648708079755,248.22095563549547L426.68273230890475,247.9836874298282L426.77648709700384,247.53778259017244L426.7521918248291,246.9691431414465L425.85793934899567,246.53959268720442L425.53151068832364,246.34731743744396L425.4374444453937,246.84641359336428L425.57636352054607,247.24733391512888L425.8825460572661,248.21686904699567L425.78847978732955,248.97365543618326L425.5315106921464,249.2313692661778L425.3436896561676,249.350004473798L424.306780357246,249.67725375432315L424.306780394185,249.13319555056665L424.33107562427085,248.68321801330202L424.4946014359411,248.0941436155717L424.6618649717691,247.83232542142278L424.89453883323114,247.3168763699481L424.80078403170774,246.8914167193111L424.14325462953894,246.7195967787285L423.0817386246593,247.14096192495617L422.2815523558379,247.7055120577341L421.3427586030924,248.27004373518892L420.4242108428301,248.66685222275873L420.07286398076525,248.66685223400665L419.78723894885087,248.4745881782229L419.1748737834432,248.0941436010255L418.9624459931608,247.717781776479L418.65626339098947,247.1491451308036L418.21147326592467,246.69504685688486L417.5745013598611,246.4577785641897L417.0804977623901,247.07141909769533L416.72946237088144,247.84869156464674L416.6600028271169,248.27414007949793L416.30460678190656,248.76912352809254L416.04763769708694,248.03277587462784L415.4106657691635,247.79550648581196L414.4675112985163,247.8159592692475L413.5735703080803,247.83642185981736L412.94064758279944,247.7627839271099L412.1379695887587,248.05870990342967L412.47125069940887,248.2086860524579L412.5855630544158,248.9900210369604L412.4017911655913,250.28675447856097L412.3771844368919,251.3993762927689L412.23452768651475,252.22564140405223L411.8140327366537,252.43425035431932L411.69535977767487,251.79615160965153L411.3402752015685,251.46482472780175L410.9892398399573,252.21746907060532L410.47062946257904,252.5487795412937L410.0706920714444,252.28700229019654L409.50722894219814,252.04566389284042L408.8702570065045,252.4710647678291L408.70704268791155,253.10915221914456L408.18843236172665,253.90674901467182L408.07007083712847,253.8617640432705L407.97631603428636,252.96190676179003L407.95170927918656,252.51197503609805L407.55177192218616,251.89841427117113L407.01260398452854,251.68162009854277L406.2818773586371,251.93931540753954L406.5880598966603,252.27063807365022L407.0372107656299,252.98235670824297L406.94345594643454,253.26458880006004L406.51891182825585,253.3095744768509L405.97569472982843,253.07233845780254L405.50629782117903,252.90464284574907L404.79986642681064,252.78193269270702L404.30586280149896,253.27685672709623L404.3304695579902,254.10308116432066L404.33046956655613,254.57753905561006L404.0488937102325,255.07243994238834L403.7875639206171,255.14196793694407L403.64864485578363,254.9742813092916L403.5056765633147,254.52845910739757L403.3424622785688,254.00492014246248L403.08113250690843,253.5304551902422L402.68119510952437,253.15414790683363L402.18719143976784,253.08052037855816L401.762647340195,253.52635938365793L401.7869426013086,253.95174371179303L401.97476367876436,254.4957326872458L402.2360934546797,254.75750457619415L402.82385188083487,255.3996399494572L403.1546411834457,255.91907430879377L403.5302833229712,256.3935099373157L403.74271112207293,256.86793983237897L403.57918533788927,257.05607594441767L403.2976094707965,257.1010572320697L402.8484586543182,257.0029037296533L402.5422760288732,256.72069886313454L402.16663392270493,256.1726553732775L401.8850581095121,255.70230284883917L401.50536679073355,255.20332416350672L401.12972465757014,254.61025567781695L400.9867563960661,254.3280432350284L400.562212303543,253.853582292922L400.0479626476342,253.47319211761337L399.36208874520185,253.39956525990394L399.1985629350431,253.86993603125788L399.6231070788686,254.36894176417533L400.1417174345558,254.63070474836113L400.4232932294331,254.91702044480323L400.6846230394546,255.6245944423651L400.87244410975154,256.04995568138145L401.1543314157224,256.6429924598461L401.4156612219461,257.4486976201241L401.20323340307453,257.7758777210406L401.15433142937275,258.4874954158014L401.084871903101,258.86375126581186L400.8029845650137,259.02733579640517L400.3784404794443,258.9087402622731L399.95389638210946,258.6469960262221L399.29667838303806,258.266652646353L398.5167382291192,257.5550309730773L397.5287309527363,256.8883877605288L397.27176190449256,257.8331344837236L397.6474040143652,258.32800394542176L397.97788180675036,258.9210063873264L398.16570286769553,259.3954059463829L398.04734139086634,259.534456342135L397.41441866779917,259.9352340255385L397.0839408188282,259.9802121014254L396.732905429354,260.23786221550967L396.4958709310328,260.45051375209016L395.74489818457585,260.5404783158067L395.43871559279137,260.3278272802727L395.3200426088856,259.87798030257807L395.13253301553084,259.3831399458893L394.98956476635885,259.09685688132424L394.80174370586553,258.79013459416853L394.3771995871882,258.55293189096346L393.51907854741677,258.78296792552885L393.5075538992826,258.7860490866973L392.49493987649663,259.67759169095774L392.050149732894,259.8902462337787L391.8131151582121,260.0742728715177L391.50693261971367,259.91069259831124L391.17645474213793,259.7430164916598L390.5189253283227,260.1192604695111L390.4700233351103,260.54457339463266L390.09438121774696,260.82675110431364L389.43716325499076,261.0107734656781L388.77994534269396,261.4565225750682L388.9431596678106,261.9308921741782L389.3923104807237,262.2866609177639L389.9800689169225,262.6178964868616L390.4251705605077,263.1167921233039L390.89861666261515,263.25991484868456L391.343718262289,263.5216194117155L391.41317781726366,263.87738411944076L390.9191741898998,264.13499981374105L390.33110425338134,264.08593168037316L390.11898796803814,264.2045120892112L389.64959108309256,264.41305807978745L389.910609383267,265.337185437008L390.59243405514593,265.78698216639907L390.85376384505065,266.4044139034661L390.898616661741,267.27533854827914L390.73540235849003,267.60653437858593L390.2862514797677,267.58200725229636L390.05357760852746,267.2508112299875L389.55552476487287,266.6824570378301L388.9677663691434,266.49028076528316L388.75938781968813,266.8664532724727L389.0412751428272,267.2671595317697L389.11042315440596,268.2607394855181L388.6164195440041,268.78000989579186L388.26538413120835,268.7759156690286L387.8654468062423,268.0685704005041L387.4162959578289,267.9009274849003L387.1347200788824,267.66377742183033L386.87743954285213,267.9459065409429L386.9917518064166,268.2770971503111L386.73447123137424,268.5346859308531L386.40368193238777,268.6736958581022L386.0037445777169,269.23793902699424L385.65270922869695,269.7326619853613L385.46488812737584,269.94526502919285L384.66470192932235,270.6035286036299L384.3585193390291,270.9346890023554L383.9336637854683,271.8300661307531L383.65208796593885,271.99359997233586L383.08862479605284,272.4146988902406L382.97026326846867,272.8398876235086L383.63184189373493,272.6763569744333L384.2442070630614,272.8685056601275L384.57063564745476,272.9420976315733L385.019786516374,273.1342451749954L385.3259691213662,273.4653963241928L385.41972388399347,273.96007150961236L384.73821066327326,274.3361890516471L383.9623197165999,274.2380662321226L383.6318418857279,274.63870463102677L384.08068126098397,275.2519267540863L384.3868638266173,276.1513008334413L384.5052253898929,276.6704686701318L384.38686386029764,277.639305656787L384.1501408076416,278.1584664304358L383.7991054284774,278.7716412798643L383.492922860901,279.07822075693025L382.9500171873446,279.23764486179454L382.3170945193668,279.47473328462115L381.6352698215569,279.98978031455914L381.49230154637195,280.48438505180286L381.77418889367806,281.02803401895903L381.4923015558136,281.9232031409788L380.71672205124787,282.13575895291336L379.51628704443533,282.34012764689686L378.59773931311076,282.4341403047695L377.3035494293448,282.9941194148804L376.83415254427086,283.2271058738985L375.91560480930013,283.4110346518989L375.30728882827873,284.0936230167354L375.30728881963284,284.3797332659807L374.71953040712583,284.37565013429014L374.3192815957911,284.06909497892286L373.6823096955427,283.6848897316806L372.78836870096086,283.18622514214053L371.2574557580313,282.25838415955707L370.83260023517994,282.9655076710659L370.76345212684885,283.55818488457317L370.66938592300204,283.9342151526347L370.24484179993215,283.6971489448145L369.9875611911893,282.6793889737617L369.6570833407168,281.8741547452027L368.85689717953426,281.49401522700697L368.6444693663402,282.90828401893043L368.97525867194537,283.59496266627815L369.02011142912943,283.9750854868186L368.62391181779145,284.44513104527135L367.98725138007035,285.1031774750065L367.2808200010398,285.7121704874333L366.66845481495386,285.9492269863439L366.4111742689636,285.5936466652954L366.3174194330935,285.0255216433211L366.292812681095,284.53096368264823L365.79880911324835,284.38381639374103L365.0434756626636,284.75985000498895L364.43515973742285,285.0868355693914L362.9288535536787,285.2217122045342L363.0431658350912,284.7516741541864L363.7290397928202,284.5677504596139L363.86795878459367,284.1631042498909L362.94909958869744,284.08953986566746L362.03055183428665,284.01596556825893L361.0671513259194,283.9873544182867L360.54854098555757,284.38790923168705L360.4547861720979,284.620879268703L359.93617579970953,284.4328720191079L360.5036881990478,283.67671362754623L360.69150924371144,282.68756525868935L360.597754437566,282.63851760189937L360.10375077909646,282.45049287353606L359.679206673764,282.84697714980973L359.51568092438976,283.3211168344102L359.5362384608101,283.69714889524L359.066841498427,283.48460982680217L358.82980702178753,283.2720600041588L358.54823112871503,282.72435342696326L358.19314661016153,281.6861270031795L357.5848306151351,281.35095176261314L357.25404134786356,281.7270090663997L357.2294346029543,282.6957414606124L357.3477961303131,283.33337610794854L357.5356171692893,283.8075110287454L357.0416135173237,284.2325952393627L356.78464444090633,283.89742794865265L356.71518488271244,282.977767022124L356.9030059530322,282.5322458218716L356.3843955729723,282.36465656355915L355.60476690058607,282.3605635513829L354.94723749435667,282.38100910581863L354.0779032077819,282.07035799582303L353.8654754173619,282.139842197309L353.3020122462299,282.6344245692878L352.6407450661493,283.1044830830906L352.50182605462936,282.69982470833514L352.54667883528754,281.73109238921126L352.61613835186836,281.0975197789447L352.07728192475014,280.76234031352743L351.08522543562134,280.33311268038085L350.97901155285814,259.9761267150443L351.45681833201104,225.4482053306182L351.7097382024014,214.9015141782879L351.91406761121664,205.5841177439513L351.48516285265157,197.89038770978544L351.4851627935442,197.77155970185706L351.60383584846556,197.63225564914475L351.8854116477474,197.27578634838545L352.24049627485806,196.82916266594324L352.3794152737239,196.66525486995357L353.3674225724737,195.60398249073367L353.51039083333575,195.5097250584618L353.7919666833372,195.10815034943957L354.0043944434504,194.87048934178978L354.28597033875786,194.35006241240572L354.47379134277554,193.7394654335775L354.68590766623987,193.31328212268707L354.8983354689514,192.64939206577333L355.0126477588935,192.15352536491062L355.01264774934646,192.03467232706203L355.4128966521351,191.28058233764799L355.4820446677049,190.7109163743292L355.7639320201203,190.33385538084897L355.9311955502474,189.95678894475856L356.11901660772514,189.6002184844182L356.4700519055408,189.1534677009379L356.84569406651843,188.77638451693034L357.27023819010356,188.75590218752225L357.8826033040997,188.63703391354463L358.16449065742825,188.54685636291885L358.4460664768055,188.52226954991195L358.54013276861593,188.52226955088136L359.2462526892546,188.33782846574604L360.37722821418265,187.84596627637407L361.01420013819137,187.23113532635935L361.1774144040442,186.7105592626323L361.6714180663661,186.0506085337466L362.3043407397841,185.7431639527648L362.98585394480705,185.34554674608341L363.57797309166097,184.96840870182206L364.3741100990263,184.42728217071706L365.08022999219725,184.02964474472765L365.5988403774236,183.62789605011884L366.1417460306497,182.91866305415164L366.6563071906376,182.30782066948035L367.01139176168766,181.71334615035562L367.3381318543252,181.1721705806312L367.4318866936633,179.61004362185014L367.5259529396519,178.97040046705155L367.90159503464895,178.59318800725674L368.46879596132806,178.17084328530797L369.2200801333827,177.65008314179823L369.71408377800554,177.34664352752893L369.95080681805064,177.22774203962462L371.2449966840527,176.40351126254075L371.47767055515163,176.14516729407964L372.2330039142046,175.4849427259577L372.7964670780692,175.13225782686183L373.4293897635149,174.8041875721144L373.9476887051797,174.35307159264087L374.4416922891188,173.78711653970063L374.9845979849641,173.34010829603918L375.33594480028637,172.9627908666768L375.9726052231059,172.6100698523607L377.57297763492886,171.5970346594884L377.7607986901882,171.50268932331184L378.13644084486504,171.2442940178459L378.7245107432883,170.9407756829003L379.4063353784142,170.7069785304966L379.8308795005191,170.49369586149717L379.94519185034915,170.4682895876745L380.2554236320037,170.3993657965406L380.9821010972173,170.2845185432031L381.5698595117899,170.2886062790483L382.557866753032,170.31731813385343L383.71344902398226,170.3214254475152L384.51363524614,170.20657778715898L385.3586742746635,170.02200295969578L386.0199414150268,169.83331927100107L386.77122563900036,169.26725951525302L387.4081975357153,168.98423444093945L388.11431749204235,168.96371642259606L390.0208724467438,168.04897621725536L390.55972889072007,167.62645015374764L390.65379516662654,166.8183074794724L390.7475499384866,166.629598707179L391.0537325389445,166.18243877973387L391.7112619563031,166.1127007228727L392.2052656036923,165.90348526402025L393.7361784653616,165.34144084664425L393.8056380549349,164.8409281950776L393.6626697541727,164.36910439327525L393.8750975292004,163.67983890991775L394.2750348998142,163.0438860686455L394.98146636436985,162.5474332566796L395.66297955093967,161.76783937348586L395.8508006286162,160.86921788901944L396.6266915628594,159.42890140625695L396.9777269287566,158.6245863061311L397.63899406019823,157.89000599805587L398.1535552601537,156.9912339356377L398.32081881168,156.23609176994856L398.62700137023705,155.7148535989031L398.9537414869133,155.57120471303065L399.6150086183611,154.88987785611417L400.22332458803527,154.15517753066376L400.5989667048849,152.99768106099518L400.8849032023277,152.4968813446287L401.47266163382494,151.860619086171L401.79940177518137,151.53222429886353L401.9420584981759,151.1053058132878L402.00871476109546,150.94602655533438L402.0809775756531,150.77278921044984L403.1178868322729,151.0601471266658L403.73025198266583,151.134041331971L404.19996040950326,150.9493150672955L404.6245044860985,150.7851018524505L405.16336087522643,150.92878118545198L406.46159994810205,151.22024771333787L407.5190667620526,151.50759988228168L408.22518672705877,151.43781748181428L408.8827161232098,151.4172839572907L409.8707233805246,151.4952876608847L410.8135663797794,151.59380477603318L411.1892085229573,151.61842912326304L411.8507871166473,151.45424034285332L412.5080051235144,151.07657027408715L413.61437387899423,150.84668438409426L414.5083148893424,150.42384401258235L415.35335385792325,150.30889807113243L416.6272977085538,150.21857735196602L417.00293981998874,150.243222714638L417.4274839265719,149.89015840109948L417.9417336018018,149.79574467800992L418.1787680920806,149.48783517654775L418.17876809400445,149.0403419356256L418.3419824549703,148.85148720093028L418.55659057638366,148.45272778686493L418.37157280208197,148.31897760555273L418.81542853693503,148.28082180322318L419.68507425548927,147.85793263152846L420.62417955368176,147.43503536324906L421.7059416203416,146.8725367600329L422.08563290146594,147.20511177441878L422.24915866584706,147.77582451777667L423.19200168680385,149.0362308293531L424.0373521649679,149.22919501107768L426.5562723242474,148.62157838831652L427.0502759544861,148.24797138279098L427.78100267657976,147.08605729799123L428.8873714940897,146.61797745348116L429.4956874011292,146.05134625839884L430.29587365757385,144.91394772850066L431.0471578617527,143.56706873328156L431.68381826161385,143.5917020243156L432.8147938066378,143.92843897467088L435.6156012568818,143.96538828952401L436.97893913429584,144.0434182892843L437.8526341014235,145.06588885787548L438.722279875132,145.00017836283862L440.41671853944126,144.79076895781844L441.68630165863567,144.77434111447212L442.44163507827477,144.96734265318284L444.1806150542417,145.99386201543558L445.7607414193361,146.21559465423405L448.7001564897379,146.84379571562712L450.3005289515414,146.82738901992218L451.54986600695133,146.56871768999594L452.6767922999063,145.9363775753563L453.97067069304245,146.03493900968786L454.4444282424064,146.74936889902554L454.75061082109636,146.77399860970874L456.2080150382108,145.99797362304938L458.20863629066565,145.05766527140116L459.26610310027144,144.84825636677408L460.46622666128127,144.7579133429554L463.5486099878617,145.03303362395815L464.4917644202433,145.01249419275004L465.7367408040916,144.73328131426814L466.72879732242666,144.07216302458187L467.78626411042967,143.60401863570723L470.4441033246575,142.85662724658528L472.3260515858966,142.5773670553032L473.43273179479763,143.0332166385756L474.25721333370785,143.25086732066566L474.8001189141716,143.51367045643585L475.6454694334678,143.4685157269007L476.1394730754018,143.47260825118104L477.29474382675545,143.97361231077195L478.37650585322217,143.4561794863335L479.0583305899718,143.12765944967902L480.022042602226,141.49728302624933L481.38538043027813,140.74161297013438L483.43490373675274,139.78053202317182L484.6555848169015,139.0248014574716Z" style="stroke: rgb(68, 68, 68); stroke-opacity: 1; stroke-width: 1px; opacity: 1;"/></g></g></g><g class="layer lakes"><path style="stroke: none; fill: rgb(255, 255, 255); fill-opacity: 1;"/></g><g class="layer frontplot"><g class="scatterlayer"/></g></g></g><g class="funnelarealayer"/><g class="pielayer"/><g class="iciclelayer"/><g class="treemaplayer"/><g class="sunburstlayer"/><g class="glimages"/><defs id="topdefs-d115f2"><g class="clips"/></defs><g class="layer-above"><g class="imagelayer"/><g class="shapelayer"/></g><g class="infolayer"><g class="cbcoloraxis colorbar" transform="translate(10,60)"><rect class="cbbg" x="595" y="0" width="94.921875" height="440" style="fill: rgb(0, 0, 0); fill-opacity: 0; stroke: rgb(68, 68, 68); stroke-opacity: 1; stroke-width: 0;"/><g class="cbfills" transform="translate(0,32)"><rect class="cbfill gradient_filled" x="605" y="0" width="30" height="398" style="fill: url('#gd115f2-cbcoloraxis');"/></g><g class="cblines" transform="translate(0,32)"/><g class="cbaxis crisp" transform="translate(0,-60)"><g class="ycbcoloraxistick"><text text-anchor="start" x="637.9" y="4.199999999999999" transform="translate(0,490)" style="font-family: 'Open Sans', verdana, arial, sans-serif; font-size: 12px; fill: rgb(42, 63, 95); fill-opacity: 1; white-space: pre; opacity: 1;">1264</text></g><g class="ycbcoloraxistick"><text text-anchor="start" x="637.9" y="4.199999999999999" style="font-family: 'Open Sans', verdana, arial, sans-serif; font-size: 12px; fill: rgb(42, 63, 95); fill-opacity: 1; white-space: pre; opacity: 1;" transform="translate(0,433.14)">1266</text></g><g class="ycbcoloraxistick"><text text-anchor="start" x="637.9" y="4.199999999999999" style="font-family: 'Open Sans', verdana, arial, sans-serif; font-size: 12px; fill: rgb(42, 63, 95); fill-opacity: 1; white-space: pre; opacity: 1;" transform="translate(0,376.29)">1268</text></g><g class="ycbcoloraxistick"><text text-anchor="start" x="637.9" y="4.199999999999999" style="font-family: 'Open Sans', verdana, arial, sans-serif; font-size: 12px; fill: rgb(42, 63, 95); fill-opacity: 1; white-space: pre; opacity: 1;" transform="translate(0,319.43)">1270</text></g><g class="ycbcoloraxistick"><text text-anchor="start" x="637.9" y="4.199999999999999" style="font-family: 'Open Sans', verdana, arial, sans-serif; font-size: 12px; fill: rgb(42, 63, 95); fill-opacity: 1; white-space: pre; opacity: 1;" transform="translate(0,262.57)">1272</text></g><g class="ycbcoloraxistick"><text text-anchor="start" x="637.9" y="4.199999999999999" style="font-family: 'Open Sans', verdana, arial, sans-serif; font-size: 12px; fill: rgb(42, 63, 95); fill-opacity: 1; white-space: pre; opacity: 1;" transform="translate(0,205.71)">1274</text></g><g class="ycbcoloraxistick"><text text-anchor="start" x="637.9" y="4.199999999999999" style="font-family: 'Open Sans', verdana, arial, sans-serif; font-size: 12px; fill: rgb(42, 63, 95); fill-opacity: 1; white-space: pre; opacity: 1;" transform="translate(0,148.86)">1276</text></g><g class="ycbcoloraxistick"><text text-anchor="start" x="637.9" y="4.199999999999999" style="font-family: 'Open Sans', verdana, arial, sans-serif; font-size: 12px; fill: rgb(42, 63, 95); fill-opacity: 1; white-space: pre; opacity: 1;" transform="translate(0,92.00000000000001)">1278</text></g></g><g class="cbtitleunshift" transform="translate(-10,-60)"><g class="cbtitle" transform=""><text class="ycbcoloraxistitle" x="614.66" y="83.5" text-anchor="start" style="font-family: 'Open Sans', verdana, arial, sans-serif; font-size: 14px; fill: rgb(42, 63, 95); opacity: 1; font-weight: normal; white-space: pre;">Frecuencia</text></g></g><rect class="cboutline" x="605" y="32" width="30" height="398" style="stroke: rgb(68, 68, 68); stroke-opacity: 1; fill: none; stroke-width: 0;"/></g><g class="g-gtitle"><text class="gtitle" x="350" y="25" text-anchor="middle" dy="0.7em" style="font-family: 'Open Sans', verdana, arial, sans-serif; font-size: 17px; fill: rgb(42, 63, 95); opacity: 1; font-weight: normal; white-space: pre;">Mapa_I</text></g></g></svg>