<svg class="main-svg" xmlns="http://www.w3.org/2000/svg" xmlns:xlink="http://www.w3.org/1999/xlink" width="700" height="500" style="" viewBox="0 0 700 500"><rect x="0" y="0" width="700" height="500" style="fill: rgb(255, 255, 255); fill-opacity: 1;"/><defs id="defs-3c1810"><g class="clips"><clipPath id="clip3c1810geo"><rect x="81.00000000000003" y="59.49999999999997" width="441" height="440.9999999999999"/></clipPath></g><g class="gradients"><linearGradient x1="0" x2="0" y1="1" y2="0" id="g3c1810-cbcoloraxis"><stop offset="0%" stop-color="rgb(246, 210, 169)" stop-opacity="1"/><stop offset="16.666667%" stop-color="rgb(245, 183, 142)" stop-opacity="1"/><stop offset="33.333333%" stop-color="rgb(241, 156, 124)" stop-opacity="1"/><stop offset="50%" stop-color="rgb(234, 129, 113)" stop-opacity="1"/><stop offset="66.666667%" stop-color="rgb(221, 104, 108)" stop-opacity="1"/><stop offset="83.333333%" stop-color="rgb(202, 82, 104)" stop-opacity="1"/><stop offset="100%" stop-color="rgb(177, 63, 100)" stop-opacity="1"/></linearGradient></g><g class="patterns"/></defs><g class="bglayer"/><g class="layer-below"><g class="imagelayer"/><g class="shapelayer"/></g><g class="cartesianlayer"/><g class="polarlayer"/><g class="smithlayer"/><g class="ternarylayer"/><g class="geolayer"><g class="geo geo" clip-path="url(#clip3c1810geo)"><g class="layer bg"><rect x="81.00000000000003" y="59.49999999999997" width="441" height="440.9999999999999" style="pointer-events: all; fill: rgb(255, 255, 255); fill-opacity: 1;"/></g><g class="layer land"><path d="M81.50000000000003,68.12157014852433L85.97982367752442,64.08460043511104L105.6244125361874,65.95231094599887L104.39662573252107,69.06450454453716L122.8134277875177,70.30915345961085L137.5468694315145,76.5304612905395L149.82473746817908,86.47796532978566L162.1026055048432,96.41759162436841L179.29162075617307,97.65950412995488L205.07514363316855,73.42020897463306L219.80858527716532,69.68684526038538L219.80858527716532,59.99999999999997L344.8924937797338,59.99999999999997L344.8924937797338,59.99999999999997L354.8651336804726,82.74858866072418L369.5985753244698,80.26171523181677L375.5937559675488,59.99999999999997L521.5,59.99999999999997L521.5,499.9999999999999L81.50000000000003,499.9999999999999L81.50000000000003,361.96574574373574L87.20761048119076,359.6824351063555L110.53555975085314,346.1738929196544L106.85219933985417,335.7339698974438L119.1300673765183,332.66310579611593L117.90228057285196,316.0776663837374L125.26900139485036,303.1741033003975L142.45801664618025,301.33043012543135L157.19145829017745,279.8144413282186L169.4693263268416,261.97661576073205L157.19145829017745,253.3614347555046L163.33039230850954,233.65913071032804L155.96367148651115,202.22428577177635L163.33039230850954,193.58683031942275L158.41924509384378,164.56024008537767L143.68580344984656,146.00673728839695L132.63572221684876,136.10257000793843L125.26900139485036,117.51434156911489L133.86350902051552,108.21102925359907L125.26900139485036,106.3496034379204L119.1300673765183,94.55449962746331L101.9410521251884,85.23496354902278L87.20761048119076,87.09942002980392L81.50000000000003,96.72434145937561L81.50000000000003,68.12157014852433Z" style="stroke: none; fill: rgb(229, 236, 246); fill-opacity: 1;"/></g><g class="layer coastlines"><path d="M162.1026055048432,96.41759162436841L179.29162075617307,97.65950412995488L205.07514363316855,73.42020897463306L219.80858527716532,69.68684526038538L219.80858527716532,59.99999999999997M344.8924937797338,59.99999999999997L354.8651336804726,82.74858866072418L369.5985753244698,80.26171523181677L375.5937559675488,59.99999999999997M143.68580344984656,146.00673728839695L158.41924509384378,164.56024008537767L163.33039230850954,193.58683031942275L155.96367148651115,202.22428577177635L163.33039230850954,233.65913071032804L157.19145829017745,253.3614347555046L169.4693263268416,261.97661576073205L157.19145829017745,279.8144413282186L142.45801664618025,301.33043012543135L125.26900139485036,303.1741033003975L117.90228057285196,316.0776663837374L119.1300673765183,332.66310579611593L106.85219933985417,335.7339698974438L110.53555975085314,346.1738929196544L87.20761048119076,359.6824351063555L81.50000000000003,361.96574574373574M143.68580344984656,146.00673728839695L132.63572221684876,136.10257000793843L125.26900139485036,117.51434156911489L133.86350902051552,108.21102925359907L125.26900139485036,106.3496034379204L119.1300673765183,94.55449962746331L101.9410521251884,85.23496354902278L87.20761048119076,87.09942002980392L81.50000000000003,96.72434145937561M81.50000000000003,68.12157014852433L85.97982367752442,64.08460043511104L105.6244125361874,65.95231094599887L104.39662573252107,69.06450454453716L122.8134277875177,70.30915345961085L137.5468694315145,76.5304612905395L149.82473746817908,87.09942002980392L162.1026055048432,96.41759162436841" style="fill: none; stroke-miterlimit: 2; stroke: rgb(68, 68, 68); stroke-opacity: 1; stroke-width: 1px;"/></g><g class="layer frame"><path d="M81.50000000000003,59.99999999999997L521.5,59.99999999999997L521.5,499.9999999999999L81.50000000000003,499.9999999999999Z" style="fill: none; stroke-miterlimit: 2; stroke: rgb(68, 68, 68); stroke-opacity: 1; stroke-width: 1px;"/></g><g class="layer backplot"><g class="choroplethlayer"><g class="trace choropleth"><path class="choroplethlocation" fill="rgb(177, 63, 100)" d="M140.62321061200075,305.2176795895066L140.80039039618524,305.67168818883647L141.09360867132781,306.14617679211824L141.62566845659782,306.5796993506801L142.116880586957,307.153165328662L142.59066091954523,307.8460935166119L143.08187305776318,308.2830094119568L143.53535970458603,309.03395247855735L144.10488481212678,309.5869120654235L144.57554303767705,310.25932827228525L145.4211147980779,311.1331096167243L145.6394024005082,311.52561984635435L146.64212038708058,312.7543394667416L147.15362626442834,313.266299928216L147.74344507098292,313.9420728734025L147.74344508324438,314.6110093832758L147.7434450549556,314.986435857101L147.941438932427,315.55979825185403L148.35407797084216,316.0512487453252L148.6301246098134,316.2901454013592L149.35653579748782,316.6860310834338L150.45812066344928,317.4027084990272L151.02764573024584,317.7985854323739L151.7574392195157,318.1944592395057L152.2483911561096,318.43334573354815L152.68158406366123,318.49477582241093L153.0531153046519,318.4981931114449L153.8203740983604,318.51866439303006L154.46847229157558,318.5220816673254L155.11969265709195,318.4674780930846L156.0235437794287,318.42993655709734L156.9065808709461,318.3548534138116L157.41834690918805,318.1808143796562L158.06618494928796,318.12279306196683L158.45827008011236,317.948745118983L158.67655767794864,317.8497805430961L159.03117744529692,317.6552518667708L159.5393010245699,317.65525189562544L159.91447473009194,317.63818948802384L160.21497791353232,317.64094778683847L160.28626609544662,317.64160685584534L160.52484743680373,317.69962056486395L160.6034205706594,317.77811388440546L160.89663882455852,318.25248044137254L161.13522014030454,318.6278713851485L161.1149264249246,318.9452473934456L161.1729456382564,319.2796832673588L161.21379328489934,319.47761480802365L161.44899230633555,320.18743501032657L161.49010007946964,320.85969765355065L161.62643226997434,321.2521391454186L161.64672600874536,321.50807273158046L161.76614673498187,321.86637932090787L162.00160596089646,322.0438312800913L162.53002325689044,322.02677036557475L162.78577620308923,321.92780538418873L162.86434932275455,321.67187381898L162.98350987681113,321.41594099206804L163.14039599039506,321.2214257429006L163.5327412769773,321.22142573273277L163.78849420930632,321.22142572537837L164.20113319266937,321.992640293114L164.26253472325345,322.66488831085684L164.26253471993408,323.3337109697339L164.30000005679693,323.66812740848513L164.26253472608389,324.2004477172475L164.36140158610942,324.6167427414436L164.71602133841697,325.10810837991824L165.05008723517713,325.4083861892379L165.7562046892108,326.0396436404958L165.84934767261944,326.14239636404096L165.95393839260586,326.2580270203272L166.00050987672498,326.5034022771994L165.98750107179728,326.667318695106L165.95393837774347,327.08717909984955L165.89591916663426,327.5000443139718L165.4627262680451,327.7730124205366L165.2480810994317,327.97091341494007L165.07064112063634,328.3223533967572L164.75686897545705,328.91263621097534L164.54196366745714,329.06959058438605L164.18734388451543,329.2265404753896L163.75441113456506,329.61891950498466L163.59752508661225,329.8748192645055L163.5189519374833,330.11024286035183L163.39979136943677,330.5435620008713L163.00744606484585,331.03487785758034L162.949426831435,331.311238250845L162.99053462851936,331.8434930134149L163.1474207306284,332.31773656811896L163.14742074199526,333.08539501766256L163.08940150355218,333.4777495457686L162.91196152702196,333.8735139885604L162.65620858640509,334.4228005190316L162.47902876688653,334.579740972773L162.32214270911265,334.7776201362747L162.30158878752368,334.85609001041706L161.8309305500877,335.3644295665169L161.73206371326924,335.4258416437454L161.75261758550644,335.7192441029323L162.12779128648128,336.0569957888561L162.69705621835132,336.0604079883377L163.05193617686658,336.1013462423844L163.36544815743488,336.1593454252168L163.7372395322427,336.31968989246855L163.97608102198913,336.34015893478266L164.23183395206777,336.14569665838627L164.53051591714063,336.1348825510349L164.72122486926133,336.12798089309655L165.05711197859884,336.48344614372843L165.56861786422357,336.50391920766134L165.98125686374667,336.21052017653864L166.05956980324356,336.15252102184087L166.37334198079373,336.1525210253602L166.96342095763623,336.1559332363439L167.37605998263933,336.0774649208408L167.76814508479882,335.8830018675229L168.00334414073134,335.8659448657869L168.35796390785836,335.84547160602926L168.53540388300982,335.84547161727744L168.90719529007788,335.86935300106444L169.3026626838443,335.9102954389846L169.59588093718548,335.95123379249924L169.89274169990773,335.99217210214476L170.02907387880043,336.0092331206651L170.50649669675306,335.7859226298899L170.816886564944,335.6407752910644L171.9353828495118,335.52478002707255L171.6421645641208,335.2109032105612L171.85680971579364,335.0130253552932L171.9762304515575,334.8356205018939L172.09226894615605,334.74009336378623L172.3685757714907,334.74009334897664L172.56292717573157,334.6036228611543L172.93784068862283,334.68209291242204L173.52791964715988,335.0983194213056L173.8416918434064,335.21772769320836L174.530377484339,335.71583190723027L175.31819019726936,336.38792137436565L175.7105354580184,336.60626412420737L176.0854489698346,336.8450790973583L176.61412643815342,337.1214146691589L177.06761306989046,337.43869061475203L177.2042054579111,337.52056945915035L177.7565589219814,337.79690635388937L178.24751088389783,338.1141791801804L178.77957064291857,338.33251639910833L179.17165575338413,338.5508529681187L179.7411808603374,338.6907235060805L179.8790740894898,338.9828796857768L180.11635453642924,339.22632668130075L180.2937945057571,339.62205742866183L180.40957279103074,340.0553139549444L180.43012671776518,340.43056819490243L180.31408822944357,341.3550597698251L180.0380416095114,341.86676385461266L179.8434300193106,342.3170584693298L179.7242694163075,342.6513708355403L179.38994336395172,343.22446730954397L178.99785827012568,343.77368483604033L178.84097216217612,344.0295271388996L178.72155142450245,344.5412172954964L178.89899138433552,344.8550492996747L179.23305729208465,345.29168344692687L179.6662502129377,345.98415516762526L179.74456316979166,346.4173714691841L179.82651855635177,346.83011927057436L179.82651856840369,347.48164602609114L179.64907859433688,347.832986844924L179.21614583736033,348.4026387421798L178.96039292596456,348.58001527310597L178.86334732124283,348.7174847728978L178.78295292586628,348.678936261586L177.87936197786092,349.3440911388399L177.74276961328167,349.364556658757L176.7608656704661,349.9103174139695L175.7956130122176,350.4185598511046L175.34550864747948,350.7528350777091L174.4999369260362,350.90633015493984L174.10759161105068,351.0223021203836L173.85183867077393,351.1212203683031L173.65410497503893,351.1382739584842L172.96854143358271,351.4111513623913L172.33787499396647,351.6465094333987L171.59090993762243,351.857986404991L170.90196408935327,352.0148911175965L170.80647952053988,352.0933393145631L170.6292997254328,352.19225636411466L170.29497366641485,352.7004861002516L170.196106793484,353.1541338476252L170.2372145852854,353.5088679214367L170.25412605325258,353.7066989963177L170.35299287660342,354.51507236801467L170.31552755011955,355.6952141247964L170.35637515559182,356.2102443046936L170.51326127216586,357.09704596150675L170.7109949362454,357.9053925195183L170.7109949391483,358.3760734224578L170.69070124831862,359.44021193771505L170.9464541623969,360.46682316677845L170.6121281178691,360.2485414328376L170.78956806502072,360.8385846473135L170.8101219741868,361.6093874919513L171.10672253780567,362.4177021583785L171.47851391214235,363.0111459853016L172.06833275459368,363.5636594879845L172.03086739298487,364.11616857279495L171.87398134283157,364.7061934669234L171.97284816488911,365.67137414874935L172.20804721587314,366.5990305901397L172.50490794651432,367.6051226759297L172.68208773761134,368.23605710738775L172.85952770444285,369.14323557371887L172.91754695089264,369.96855951197176L173.0164138133629,370.30618959891933L173.1152806621517,370.58243378562764L172.9378406562589,370.6608718623291L172.17058186769762,370.9507572540857L171.7204775284938,371.0667096632934L171.2089716666896,371.1042241501129L171.05208557173302,371.24405111927115L170.56113361508613,371.3600033014462L170.25906937426922,371.44604555013194L169.9507609076264,371.533933507416L169.2618150711428,371.49300818550444L168.7331376108211,371.70445258525L168.69228995837457,371.8442790703165L168.94804290185704,372.2398813503012L169.1663305096055,372.5161224662862L169.44263732319536,372.8503367504909L169.5789695042543,373.2868638504747L169.36406421128643,373.7950048624226L169.14577659204963,374.21106644064196L169.02999831870122,375.0772918839117L169.32321658376546,375.70819980388364L169.71868399668506,376.24020895029753L169.91641770585338,376.7347024441517L170.2098961384723,377.4645052595708L170.48594278393438,377.88055992542724L170.5064966699971,378.15338187451465L170.3087629977863,378.62741048236006L170.28820906282868,378.92069361789004L170.40762983466547,379.33674594351163L170.543962008145,379.8107724898309L170.42818373281912,380.32231014186937L170.32905668248523,380.49964308135765L170.25074373533522,380.6565141131309L170.29159136407446,380.8918215326617L170.03583842242153,380.92933436361176L169.93697157113465,380.9088725385346L169.70177256071432,380.8884117259389L169.34715277929237,380.8884117425985L168.71960844300204,380.8850009423761L168.030662587357,380.9429755453547L167.46113749279402,381.1544101380915L167.26340382126395,381.23284550085486L166.77245183422716,381.50907503451674L166.0629520986124,381.6625357731467L165.37764871077212,381.5806907490773L164.5898360419539,381.44087010846965L163.50880508425655,381.0793845665122L162.81985924376414,380.7042584006278L161.9368221682793,380.3461817868531L161.01267729062923,380.557617810254L160.75666417233856,380.5746688371616L160.4431522015063,380.8304370818181L160.245158299702,381.0862051741023L159.8905385161481,381.1032571624703L159.47789952044678,381.12371797570523L159.32101343006647,381.12030815783476L158.88808069651,380.88500092725184L158.65262149049528,380.6053610745454L158.45488779194415,380.015387227711L158.2399824643251,379.5618229381876L157.807049756758,378.75018028977394L157.29554387438105,378.21817771721874L157.01923703575716,377.70322524259035L156.7260187698356,377.22919488727405L156.33029120358123,376.4789302152523L156.1734051404055,375.7320718932141L156.07453828685865,374.86244031124295L156.17340510984812,374.3133772858513L156.46688355696978,373.22888836427705L156.42577576599447,372.9935732831896L156.05424455735167,372.63889571045155L155.85625066418186,372.47860828516406L155.58020402768094,372.0045670698876L155.46416554604193,371.8067647771013L155.05152656950898,371.70786351913466L154.57748602976383,371.46913556341167L153.85107485366976,371.26792375770896L152.74975018453614,370.81093007538385L151.84589900578496,370.45283714616386L151.17750707093666,369.9174028522719L150.33193533664752,368.98976689866345L150.1919606671473,368.5941549246528L150.19196068025218,368.12010269534744L150.34884674510954,367.7483616670754L150.4888214078547,367.31523115851L150.66261890608055,366.88210138816703L150.89807814453602,366.41145273595066L150.99694498140173,365.9373935048412L150.95947964951466,365.6611409245333L150.81950501349036,365.34737395662785L150.60459969783736,364.99267920998494L150.50573282224096,364.93128961694265L150.27053378866256,364.83238395741L150.0350746013624,364.59364525321064L149.8953601205393,364.59364524514393L149.58392955750435,364.5675822028477L149.02871411161823,364.60665340048695L148.89290229056382,364.6482148335515L148.5791301369826,364.7846366478557L147.9310319064103,364.8016901471168L147.10575388427242,364.9381097912028L146.7225147557276,365.06779653830677L146.61480191224598,365.09158475930326L146.47508745504862,365.1904902132831L146.10329605338936,365.3473739437731L145.96332140632964,365.4258168007895L145.05973042860552,365.6577318549989L144.098120245027,366.0465295283086L143.42972828477807,366.2204656254706L142.83964931078552,366.31937027290695L142.1304097241688,366.33301251672856L141.32568561485263,366.23410783837596L140.36381520216347,366.0499405868074L139.34080350769764,365.63385837805083L138.4541239538134,365.0404264563219L137.9257066516557,364.64139465645934L137.00156177309978,364.04795834146006L136.60583421044984,363.6898490487495L135.85912930615206,363.13733605348574L135.05440519458767,362.65985403145226L134.42347858311427,362.3835966163878L133.911972693125,361.9675027209588L133.16318639172863,361.24879106771897L133.06614077521874,361.1557738749896L132.92980861461717,360.99547374189484L132.73207488518935,360.79765622113416L132.22030883923352,360.6782840796228L131.70880299961385,360.3031129050622L131.39503082289494,360.0234388564884L131.06096494064576,359.54935363575964L130.70634515902944,359.19464227863415L130.4131268825853,358.9558925210809L130.0379532065638,358.60118130248276L129.88106712495374,358.4033596425615L129.3898549996632,358.2055375679253L128.977215998734,358.06569902274316L128.1896634815126,357.9838401751697L127.4018507659301,357.8815174957237L126.87317330321792,357.799662531041L126.2219529822276,357.4040158807525L125.96620004850158,357.0288316482116L125.71044711843291,356.5922541740953L125.71044708934974,356.3364439845291L125.61496253297094,356.2000143068575L125.00458983659999,355.7020368360057L124.6702637894791,355.3063822171491L124.23707086374307,355.0505728815075L123.82469203935051,354.5560011496386L123.50753756301148,354.1023559462368L123.01632545262979,353.6077834910487L122.66170563988211,353.2701030330526L122.21160129987175,352.95289014018175L121.40323472394437,352.75165006023633L120.83370960971669,352.6902516730079L120.57795667912089,352.4924184809747L120.42133077278848,352.47195365663964L120.22333690642193,352.5708703280286L120.02898548290852,352.6083884385621L119.69491961597558,352.567458844019L119.08454689287166,352.5265292352892L118.3001165020635,352.3252841708846L117.96240815607607,351.97054566974765L117.23599698065664,351.15874313352134L116.52675740899775,349.97512923719546L116.01525156204468,350.07063705884724L115.50712799143744,349.9512522847264L115.13195428296044,349.2383477238372L114.69902156527857,348.82220004998817L114.18751569968859,347.8943885671665L113.00735769557545,346.884698345644L112.4380927974698,346.46853909129635L111.49339404039151,345.7760714921358L110.6475621071339,344.8072924322097L109.80199036033295,344.1148104175426L109.19161762396274,343.6167647775895L108.85729159883721,343.2040002327064L108.8981392169024,343.1050725631539L108.97333004239022,342.3955198470208L108.20945353163506,342.2351891390547L107.7968145090806,342.3921079608595L107.4421947315455,342.52856328793854L107.32277401213042,342.25224458844355L107.16588792797975,341.6382015906962L107.02955573526674,341.38234715433805L106.20089543516045,340.72736149503277L105.63137030529984,340.31116896522053L105.06184524350863,339.7994539417731L104.37289939670674,339.22291870492876L103.90224116020048,338.9261191955867L103.52706745831497,338.35298486690357L103.5067737398746,338.17558470042115L103.60564061295901,337.84125565181387L103.52706748207433,337.3295226725281L103.46930839937477,337.0736527488007L103.72167907348557,336.73931835657953L104.46838396797443,335.8932344139241L104.94242450117625,335.30302149476495L105.2356427372541,334.910678039411L105.8460154684667,334.38186122695686L106.41554056172336,333.6346923051999L107.04308486618032,332.8704528970935L107.82751527653906,332.0243185811216L108.06271432600073,331.3965372711688L108.57422018918197,330.8267495547814L108.8096794036147,330.8062787530957L109.18459289150229,331.0655819411819L110.18731090029127,330.9529908295589L110.69881677091865,331.09287759363156L111.18976872801807,331.1133482825499L111.99475302053526,331.25323876028284L112.15163910351802,331.3351213406661L112.9972108688244,331.3965372760407L113.825871155936,331.73431167871723L115.65386717594416,331.74454894292194L117.24640402388025,331.94584932671864L117.59764151859258,332.26315039922486L118.60009932019727,332.1880897683686L118.93442539318997,332.1130290595924L119.28904517455291,331.87760908415436L119.48677889374014,331.30441741245863L119.42537735795548,330.79263290162413L119.38791203998028,330.7141580179749L119.23102594665107,330.61521215568655L119.46648516508174,330.1614224838418L119.22764366243524,329.7690469708545L119.2276436440608,329.6086859398452L119.28904516113784,329.3527850490756L119.38452972627303,328.91946139552056L119.64028268140697,328.62602704108485L119.58226344472749,328.4895471636206L119.58226345032242,328.19269804542944L119.4833966043415,327.93679107561377L119.4654444539471,327.9106776416291L119.30595662113564,327.6774743316187L118.9924446426229,327.73547731861845L118.18746033649322,327.6160545850538L118.28294488166307,327.08376639651607L118.28294489375665,326.4729927835282L118.30349879099921,325.42885885500397L118.22492564727128,324.97503296670607L117.71341979153448,324.0059424172059L117.23963945503118,323.6885966539497L116.47212047424955,323.8421565279008L116.00172240191779,323.9786475444327L115.56852948676814,324.0776006647063L115.39108952725744,323.6817708586013L115.3910895248591,323.3849007132677L115.725415584789,321.8697963772896L115.7048616886367,320.92112490855413L115.78343481604495,320.2522720942169L115.78343480295655,319.9383131840775L116.13805458246088,319.9997414675824L116.47212045665128,320.23521053905597L117.09966477388949,320.1976702930074L117.73059141344123,320.02362933086766L118.45700257054264,319.84958777601656L118.92766081416883,319.733557046166L119.02652765222936,319.2421423183164L119.00597375753739,318.8258054528743L119.18341376792529,318.41287443696774L119.36059353409243,317.9009674529643L119.34029981664125,317.3310412122999L118.98541988527634,317.21159554412856L118.65135399866264,317.28668035573764L118.39560106768897,317.3481118423677L118.02380967678224,317.06826033946163L117.96240816347017,316.24236615613324L117.70665520118203,315.2151013710975L117.33148151879334,314.2287610871271L117.13713011421578,313.7338827626793L117.2326146847854,313.14342665051197L117.37258934023319,312.59051745100646L117.54976912896788,312.35501215179045L117.94211444258204,311.52903763659793L118.62741781516209,310.505081439479L118.90372463643848,310.2525006302262L118.84570541825445,309.9350678178888L118.84570541922716,309.6005675305879L118.88317071915938,309.26605667958734L119.23779052319927,308.71651115349727L119.37438286669212,308.4775762640493L119.80731559375471,308.30349314174293L120.17910700197032,308.06796594619755L120.67005896413056,307.75393592834627L121.04523265443487,307.51840586609615L122.16372895496661,306.93469833057355L122.65494106454395,306.3236783992397L123.06758009712513,305.79458156876166L123.53823835320111,305.12550836614133L124.22692400364673,304.695389662165L124.8372967227358,305.0504120448186L124.83729670547422,305.66144974160926L125.01473671090753,306.19737643545164L125.38991036906614,306.55238663061385L125.80254938495622,307.00638142073063L126.05830233484883,307.6788359779555L126.33434898712412,308.23181217821264L127.10186792448602,309.2797122097551L127.01991250969266,308.9247236831553L126.86718924567947,308.59230749768227L126.78471349194197,308.4127234604006L126.72669426050774,308.0167684790185L126.82556111409318,307.6242199871166L127.04046643746875,307.0336938606953L127.01991253704952,306.2451659499837L126.9993586187127,306.02670261946685L127.29621934306522,305.63413645044704L127.60999152378162,305.0811358687678L128.10094348191618,305.0060313775434L128.33614250928227,305.4224983850188L128.3158487725252,305.794581571119L128.2986771655047,306.1700716110421L128.69076228320034,306.0744923434794L128.88875618434955,305.56245112726856L129.20252834746375,305.0504120440427L130.00725246784572,304.48032872458333L130.37904387189508,304.14919754691135L130.71310973337324,303.65761949131195L130.8119765721119,303.1626254960239L130.89054972961935,302.80758743998797L131.04743580184478,302.4354783666275L131.5964069815248,302.1999193901793L132.46253262818317,301.79025800320613L133.18894382631206,301.7527028308095L133.85733577518587,301.797086935724L134.07562334673256,302.2886865822688L134.43024312127147,303.08068888499605L134.56657531819326,303.51424216035247L134.62459453494426,303.92730523672753L134.9623028886486,304.22771374972353L134.99976824502303,304.760247959976L134.9997682480669,305.13233677951337L135.0986350629837,305.64779309372057L135.3952356224298,305.6068312554557L135.74647311824802,305.1767173138994L136.33655210484085,304.784143493936L136.84805798918663,304.1935791088833L137.1618301260004,303.7020015486522L137.43787680090966,303.36745410002635L138.12344033421425,302.54472337022673L138.34172794010757,301.9916747185668L138.69296544214677,301.7185662198876L138.75046433978451,301.7786837993088L139.08661163149483,302.0803202430802L139.20941465369975,302.1906405649552L139.14645207879846,302.41158151238676L139.40220501282514,303.2377250909393L139.5421796663414,303.575691978559L140.01257773844497,304.10823425428197L140.309438440721,304.6441882764062Z" style="stroke: rgb(68, 68, 68); stroke-opacity: 1; stroke-width: 1px; opacity: 1;"/><path class="choroplethlocation" fill="rgb(241, 156, 124)" d="M132.84707266074415,291.63896350943764L131.57585308181538,292.27549090362584L130.93998314264186,291.47983814524093L130.93998313243165,290.6841685193997L131.41688561569535,290.047630357676L132.21146288347876,289.25193011737855L133.00604014229017,288.9336419494075L133.64164991023168,288.93364194845367L133.00604015068387,290.0476303749723ZM194.8654673772624,281.123809534442L195.49275153486502,281.383410483542L196.14423206645793,281.36633292326803L196.7137571652479,281.3868227423568L197.34130148625974,281.39024314489484L197.65845590975238,281.3936553905001L198.56204689535693,281.3970676459439L199.40761863270254,281.4380634696255L199.85798317737823,281.5781037669826L200.05571687947003,281.8377012741153L200.27062217674342,282.13486334918167L200.6046880766351,282.37054709569236L201.25616856190106,282.7701740559212L202.08144660030962,283.0878250366768L202.63041779867646,283.36790793673777L203.06335052649482,283.50794043177575L203.39767657416974,283.5284371037932L203.90918244761025,283.6069953905901L204.24350851541627,283.63090400954815L204.51955517647224,283.6513924892636L204.635593615895,283.6513924892903L204.7753081132617,283.6513924955738L204.95456930555025,283.665309316868L204.90903850294592,283.8734831049982L204.9527480672178,284.4233004827808L205.01076728488033,284.9151232098915L204.99515674508655,285.05023115109657L204.99021341242928,285.0927210132855L204.85388122562227,285.191771483214L204.87417495434704,285.88167278326046L204.8538812134584,286.3563920213736L204.83332731933172,286.7901317037764L204.8741749265381,287.1043348418041L204.83670962213114,287.6371010952216L204.91528272226753,288.07081726996256L205.05161493237924,288.4874622731055L205.12992787778518,288.76408308122575L205.40623469858477,289.1773005092198L205.46425393713415,289.4948945215047L205.54594917561514,289.77150773578643L205.6825415345496,289.87053729388396L205.76085449693468,289.9695746911695L205.97575981220288,290.4032632534344L206.3098256710593,290.778904970049L206.42924642443745,290.84036630199944L207.09763835650088,291.07941235553983L207.53083128255926,291.3184487168148L207.62969812691756,291.4550390839235L207.8071381243633,291.6155323341057L208.10035637983034,291.8511540514829L208.02178325050187,292.2643372762402L208.04233714699433,292.7389823271816L208.04233713947963,292.9745889181786L208.0217832535796,293.3126419621874L207.9900417973337,293.9441346430854L207.9744312223108,294.0591176757191L207.96376401337076,294.1389721907568L207.98431791482298,294.278971633875L207.98431793781964,295.2247869808193L208.103738662985,296.23204027335066L208.3594915929773,296.90124882498856L208.61524452650724,297.4748553328543L208.63579842507957,298.0484454237162L208.79268451954417,298.46156297661116L208.84497987122393,298.6268706478413L209.04843746087212,299.270716046568L209.18815192041268,299.6087151275701L209.58023703452386,300.43832480335425L209.83598996525853,301.16891711136054L210.21116362167345,302.0770238495738L210.6238026334945,302.787101076655L211.05699554788274,303.3025855838735L211.58879513058633,304.0740995186876L212.00143417115817,304.5486056145048L212.08000729525486,305.33715600159474L212.27774098377972,305.95159973027734L212.4140731853389,306.36463955685906L212.61206705045555,306.78109369356036L212.88811369502693,307.0371038603748L213.00415217058986,307.47061767945644L213.0041521560433,307.6890739259404L213.00415215013382,308.0031125472585L213.20188587480058,308.675552138901L213.2804589861416,308.7950192624157L213.39961956323737,309.17048404400265L213.45763879420608,309.3070151714273L213.3793258615571,309.5630191195638L213.2632873672744,309.60056752624894L213.08584739817343,309.60056754208927L212.8098007361209,309.6381077771626L212.59489543519624,309.81560371377964L212.33914249500236,310.1910601070222L211.9845227151878,310.52214633953525L211.23755766529166,310.77813539144796L211.06037784542298,310.77472565022964L210.7057580498623,310.73376033401394L210.37143202156832,310.4572964089318L209.97934687435782,310.29686798033816L209.93849926431713,309.8053581126739L209.7235939578882,309.1943771905952L209.29040103778266,309.0715013275516L208.95633514478618,308.914485999929L208.89831593064736,308.8155027691743L208.5025883378878,308.6960275964839L208.20937009051812,308.5765602453653L207.8753042104729,308.45709258839946L207.34324444265843,308.3171489719681L206.87258618888274,308.37176414452637L206.2622135009966,308.5082976915928L205.69268841677274,308.92131386237816L205.45748934502203,309.5903218585475L205.14371720840347,310.27639323659366L204.98683111652286,310.63136319378225L204.47532524694495,311.2218506988186L203.92635406432515,311.61436020822833L203.55118039818066,311.8498692020519L203.03967451361797,311.9829828124978L202.6098639137474,312.0410032378084L201.94147195258046,312.13656995523644L201.1742131494201,311.85669659990015L200.77874574333407,311.6007134767708L200.38640045779658,311.49831822344936L199.97376143080078,311.49831820701064L199.73856243306622,311.3208287545918L199.38394261998795,311.2969366845767L198.89273048055608,311.21844101220665L198.63697757790413,311.25597996956566L198.38122462926884,311.29352703631866L197.92773798367983,311.3720306744848L197.6925389592891,311.4675987995812L197.5559465948608,311.7440648444828L197.49792736327038,311.96250068689613L197.47763365740215,312.15705201553305L197.45707974499652,312.51201582255203L197.48283718835629,312.7878166091222L197.51848126956133,312.9659515231378L197.44016832709,313.32090928257554L197.2627283529494,313.6553830100986L197.26272832629797,314.0308087416568L197.2047090927674,314.32432342295584L196.53631716161505,314.5188651446956L196.04536518345702,314.5973635014965L195.84763151128223,314.634899770664L195.43499249363026,314.63489977263566L195.12122032522348,314.6519632162575L194.844913510805,314.76800567919696L194.55169524027855,314.8260227213616L194.4117205914999,314.884047820638L194.01963546524004,315.5154276815804L194.01963545748757,315.8498944427342L194.1390562409151,316.1263271946745L194.33340765449464,316.26625577345055L194.58916058188208,316.79865133735893L194.68802743113207,316.9385780350176L194.8449134900856,316.9385780373192L195.0632010995226,316.9180980414924L195.19953326373252,316.9180980034107L195.27810642325085,317.0785043965517L195.29840012020173,317.4914462509697L195.1415140497434,318.04430028209714L195.10404871936225,318.2388274575378L195.1415140568776,318.3582707109222L195.49639402332713,318.634697823213L195.71103915163843,318.8155698872085L195.80990600621737,319.2284977075314L195.88847912427616,319.62436049130446L195.88847911355572,319.99633239277375L195.8304598738141,320.2352105673749L195.8099060103316,320.47067043504L195.80990598491883,320.6276485482181L195.57470694212458,320.98255206693096L195.4963940219913,321.218016754559L195.40090942568742,321.2555481375027L195.14489635112844,321.37498449957116L194.69140970644963,321.688934849888L194.51422991448015,321.7844831871347L194.43565678224098,322.0199443235966L194.24130535901568,322.31682196368433L193.9241509253996,322.3953083500485L193.7503533734028,322.4328470405498L193.37517969431394,322.44990784451556L192.941986785315,322.2110396738384L192.15417411081378,321.73670905672657L191.50633607149132,321.378401598243L191.05623170062987,321.0610404091107L190.58219117342946,320.8631148269626L190.26841903981273,320.68224985904357L189.79776077738302,320.542333351979L189.14654043284594,320.38194596065523L188.83276829180426,320.4024246225905L188.42012927337007,320.4399565646155L188.34181630216696,320.4570261891998L188.04495560503463,320.53551528466676L187.71427201546055,320.63447471636795L187.49598439976046,320.70954642622615L187.14136463224776,320.8289921480678L186.7901271263885,321.0815106396339L186.5343741916989,321.4944206005938L186.43550733203,321.89026632634113L186.45580105625316,322.3441258310175L186.5923934401969,322.60005418179156L186.7321078960814,322.89692859142065L186.8275924548798,322.99589180303474L186.84814635379314,323.0948467046446L186.9470132173298,323.44973391446564L186.92645932423613,323.74319488619824L186.86844008033393,324.0605403171795L186.90954787224808,324.45295864441226L187.02532616474014,324.7703000346004L187.1379823401367,325.3660414981375L187.10728157133934,325.6574788497418L186.79350942070482,326.3262696213425L186.83097474406412,326.87903700484094L186.83097476214743,327.17248009280627L186.90954788814867,327.7832463270838L186.97094940387905,328.1005692248991L187.0287084299993,328.37694715544853L187.02870843640338,328.57484612264733L187.18559452403395,329.00817230265886L187.38358838544116,329.54044717004604L187.50274897933778,329.6018608303991L187.95285331145078,329.6803371669615L188.32802699649898,329.6632785438486L188.64179915075397,329.6257446042039L189.09528578976537,329.54726819218024L189.62396327794585,329.530209527263L190.39122207106738,329.966941286287L191.05961400180928,330.4616743003375L191.47225302915734,331.07581931936215L192.00431278727007,331.88443392710207L192.2226003932085,332.3791515343907L192.26006572234536,332.91139314454904L192.16119886621408,333.40269034673247L192.16458115255494,334.33068504155L192.3214672226237,334.99938040310906L192.2634479913092,335.55206969706126L192.12373352353632,336.2616908336395L192.06571431372518,336.83143046679754L192.59751389697976,337.6433855617637L193.03070678606719,338.018656673144L193.4433458214862,338.11759127635617L193.83543091585977,338.25746270646107L194.6812628522871,338.35980900814303L195.584853811245,338.56108919364397L196.41013185920218,338.7623647036091L196.8433247408677,338.9806998886075L196.9421915974814,339.0796331241817L197.21849843852533,339.6902897114745L197.61058356642818,340.423748272657L197.98575723223902,341.0139217575861L198.51781700002485,341.50856852473976L198.87998185892096,341.57869411149795L199.04623430176431,341.61091021507855L199.59858776972754,341.416462506956L200.16811285115443,341.18107899409085L200.60130576491878,341.00709780761025L200.99339089185068,340.8501719934251L201.71980206716165,340.71712960853705L201.79837520863225,340.7546531660087L202.11552963126152,340.87405169648673L202.38819402767655,341.05485706864454L201.97555500522532,341.17084314039573L201.60402379607189,341.897463013822L200.6796187249086,343.0743698724274L200.40357207848984,343.507606180638L200.24668600085084,344.2956080805858L200.25006826436595,344.5139269766661L200.1717553117885,344.92668456534545L199.77602775528402,345.6328024279616L199.10763579872673,346.1820031823834L198.89273047441623,346.5367611893499L198.55866462072697,347.04843133243486L198.50064538690356,347.59762257871176L198.08800637736152,348.2082076904185L197.67536735006377,348.7573914441013L197.59705440523226,349.3679682781082L197.95167419953611,350.138856302825L198.56204688452237,350.8688072633706L198.8177998133242,351.54076876616995L198.87581905463722,351.85457489903473L198.89611276249684,353.256461280834L199.015533541703,353.5327439515755L199.52703941200633,353.3963063829894L200.11711836813248,353.14049206463324L200.52975740865656,352.92560248193536L200.84352955182757,352.85056646477886L201.25616858078786,353.0483948432593L201.27646230994822,353.26328419346953L201.25616855746188,353.4611158023008L201.33448152646451,353.87724232209956L201.11957620742442,354.17057625960484L200.96269012156222,354.5628239563167L200.98324401683465,354.97894581067544L200.86382328801068,355.42917162514885L200.90493106837704,355.667931266479L201.33448150916863,355.7463764971028L201.7299489131149,355.7088595667284L202.20060715003638,355.5144438366339L202.37804714937107,355.1221999093631L202.61324617624473,355.4359943573349L203.02588520964895,355.8930408379849L203.6568118183049,356.3466780068826L204.04889693575544,356.64682743941023L204.24689080676853,357.1175098034515L204.44462450510576,357.3562655838331L204.46153591727506,357.5336213438584L204.7378427662593,357.45517745005066L204.6798235313048,357.71098088596824L204.81641590405044,357.94973125902385L205.05161491623437,358.40335961866805L204.58095667071314,358.6386972342942L204.06945082395788,358.6352859306572L204.03198547358403,359.1673562681839L203.55794497571412,359.14689277082226L203.14530596141103,359.08550023366354L202.79406842904137,358.88767937945477L202.37804715177026,358.68644692756965L201.63108208222764,358.52614541401L201.49474989018364,358.8024139176038L201.00379794668197,358.8194662378737L200.59115891637066,359.269677738466L200.82635793392524,359.7642274841156L200.64917816222913,359.8801892869037L200.04192752435134,360.0745971670349L199.31213408861686,360.2894700583114L199.0600236310637,360.30993332856127L198.29250463850389,360.16668619491793L197.68213194103055,360.4804660043629L197.1503323533563,360.61689239012463L195.89186140788246,360.23489856181226L195.12798489375325,360.1155258461064L194.43903905353767,360.112114631874L193.69233414905506,360.08824007192896L193.27969515776772,360.0882400523181L192.7681892886779,359.8494942723855L191.88150973409472,359.3140159136799L191.29143077078965,359.09232274047406L190.445858995952,358.55684285465964L189.74000172830947,358.1407352435729L189.30784952093688,357.9528985980505L189.01020827655333,357.8235376004921L188.44068317353464,357.42789099244055L188.30409083095157,357.05270686495885L188.20522397071042,356.45923211848645L188.20522394351886,355.9100976659804L188.22239557586755,354.982357235794L188.44068316452484,354.15693057580495L188.73390143839063,353.2905717335907L189.0271196975645,352.3252841795012L189.0851389303814,351.5782872889358L189.10569281048038,351.0257136512741L188.92825283182344,349.9614829231043L188.55307917786843,348.2457276773115L188.57363305289527,347.4782343514045L188.21901326904333,346.7277844480285L187.47204821160338,345.95686534496525L186.8411216124756,345.63962593438845L186.17272967267883,345.24051506471005L185.70233159034814,345.0631313534624L185.56235696060423,344.96420604273624L185.2282910473981,344.4695816752039L184.89396501289139,344.4661699003286L184.3449938112286,344.5821507450935L183.99037401686837,344.87892773109365L183.54026966796016,345.28827165913833L183.14792437633443,345.6021007259345L182.97074457464538,345.9568653465915L182.83076995564144,346.25363724817623L182.77301086548619,346.7448429486761L182.7352853679265,347.25651177982013L182.55810555426189,347.631731128599L182.3023526411164,348.0444770153836L182.10800121617436,348.4367510434508L181.57594148049606,348.8665429783324L181.1224548257025,349.0609725473109L180.69264420461883,349.06097254267723L180.37548977750185,349.07802651242434L180.25971149455017,348.9791100764525L179.9459393219298,349.01662970265454L179.78567095150382,349.01662969189437L179.5299179996537,349.037095311867L179.12274269298587,348.8419093887605L178.86334728545887,348.7174847611686L178.96039290531286,348.5800152680748L179.21614585384185,348.4026387639872L179.649078576631,347.8329868247003L179.8265185643333,347.4816460538778L179.82651858535164,346.8301192819182L179.74456316220534,346.41737144125756L179.66625018733404,345.98415517303636L179.23305728508234,345.29168344799206L178.89899142262584,344.8550493099959L178.7215514276175,344.5412172847359L178.840972157363,344.029527117523L178.99785826381054,343.7736848394736L179.38994335155186,343.2244673363161L179.72426943075254,342.651370798962L179.84342999847712,342.3170584417268L180.0380415915114,341.8667638608445L180.31408826225828,341.35505978497645L180.43012672499225,340.43056819605613L180.409572814591,340.0553139578032L180.2937945083988,339.62205743124315L180.11635454480947,339.2263266810049L179.87907408519555,338.98287968389013L179.7411808680951,338.69072349512936L179.17165576919666,338.55085296461993L178.7795706549627,338.3325164077098L178.24751088110384,338.11417918419716L177.75655891736653,337.7969063627749L177.20420543750885,337.52056946932197L177.06761306931168,337.43869060885686L176.61412644825174,337.12141467511515L176.08544897813937,336.84507911019256L175.71053546503072,336.6062641252083L175.3181901813184,336.38792137477947L174.53037748870742,335.71583192348135L173.84169183038264,335.2177277169211L173.52791966605017,335.09831942351786L172.93784068596378,334.6820929141177L172.56292715710336,334.6036228626309L172.36857574025348,334.7400933384931L172.09226892201056,334.74009332741133L171.97623047826664,334.83562048523584L171.8568096991095,335.0130253567386L171.642164583792,335.2109032321305L171.93538286485534,335.52478001282986L170.81688654991456,335.6407753030735L170.50649668971081,335.785922637012L170.0290738537933,336.0092331278276L169.892741691724,335.99217207934834L169.59588093772606,335.9512337875351L169.30266268485255,335.9102954641336L168.90719529641385,335.86935302737277L168.53540390391575,335.84547159976853L168.35796390444872,335.84547162501656L168.00334412407886,335.86594486245053L167.76814511002982,335.88300186376557L167.37605998997836,336.07746493132345L166.96342098593584,336.15593321676073L166.37334198639732,336.1525210316695L166.05956979878576,336.15252101644467L165.98125687709495,336.21052017962745L165.56861787273007,336.5039192087297L165.05711201086254,336.48344613894074L164.72122486824307,336.12798086529176L164.53051590533818,336.13488254985924L164.23183396243508,336.14569666290805L163.97608105486847,336.3401589569114L163.73723953184617,336.31968989130337L163.36544815450247,336.1593454114739L163.05193615515626,336.1013462145573L162.69705622166506,336.06040800359136L162.12779129143237,336.05699576624727L161.75261760407045,335.7192441216534L161.73206368584817,335.4258416430323L161.83093056900918,335.36442957075343L162.30158879864197,334.85608998060997L162.3221426873724,334.7776201591172L162.4790287604916,334.57974096910027L162.65620859660405,334.42280052046596L162.91196149554872,333.8735140119441L163.08940150629977,333.4777495505792L163.14742073940127,333.08539501421603L163.14742072944225,332.317736550637L162.9905346229934,331.8434930156202L162.94942684588784,331.3112382446026L163.00744606058544,331.0348778743851L163.39979135398997,330.5435620134046L163.51895192859803,330.110242824612L163.5975250493801,329.8748192653628L163.75441116178092,329.6189194976251L164.187343900895,329.2265404617402L164.54196364478543,329.0695905625943L164.75686896490407,328.9126362215972L165.07064115108483,328.32235339436363L165.24808110187166,327.97091341990915L165.46272626342198,327.77301243227924L165.89591918388805,327.500044336533L165.95393838111275,327.08717911196266L165.98750107586852,326.6673187078741L166.0005099004939,326.50340224760504L165.9539384152173,326.2580270480635L165.84934767456875,326.1423963613772L165.7562047007586,326.0396436787825L165.05008725437196,325.4083861996123L164.7160213681383,325.10810836885315L164.36140158014962,324.6167427102604L164.2625347258648,324.2004477270146L164.30000006462404,323.6681273901165L164.2625347411142,323.33371099939126L164.26253473376826,322.6648882926027L164.20113319694974,321.99264032034057L163.78849419740712,321.2214257178467L163.53274126336265,321.2214257255946L163.14039595305184,321.2214257460118L162.98350989550747,321.4159410084942L162.86434930460484,321.6718737916872L162.78577620852798,321.9278053639607L162.53002324269443,322.0267703673268L162.00160597287334,322.0438312819931L161.7661467445886,321.8663792871369L161.64672601452295,321.50807272186404L161.62643226660376,321.25213915642166L161.49010007821408,320.8596976611939L161.44899232073809,320.1874350171308L161.2137932742596,319.47761483889803L161.17294563680952,319.279683241925L161.11492642144077,318.9452473946164L161.13522013895962,318.627871395272L160.89663881680258,318.2524804397028L160.60342055284724,317.7781138849794L160.52484740763987,317.69962054673215L160.28626609992048,317.64160686867353L160.21497791082942,317.6409477857152L159.9144747150677,317.63818948073055L159.53930102548446,317.65525186006596L159.03117743948508,317.6552518859399L158.67655768100425,317.8497805124331L158.4582700582038,317.9487451067536L158.06618495771508,318.1227930943321L157.41834691263844,318.180814376658L156.9065808683968,318.35485340341813L156.02354381331287,318.42993655705686L155.1196926423662,318.4674780811171L154.4684723158417,318.52208167667027L153.82037410224422,318.5186643830262L153.05311531258312,318.49819312831755L152.68158408250073,318.49477582426334L152.2483911727508,318.43334573635093L151.75743918404498,318.1944592557883L151.02764575434145,317.7985854100614L150.4581206461994,317.40270852023673L149.35653579975903,316.68603107287316L148.63012463624096,316.29014539688023L148.35407797501406,316.0512487526243L147.94143893973995,315.55979825529397L147.7434450718671,314.9864358494132L147.74344507828678,314.61100937189957L147.74344507938486,313.9420728725813L147.15362623962076,313.26629996024104L146.64212037633237,312.7543394472596L145.63940240038804,311.5256198500502L145.42111477413064,311.13310959595213L144.57554303745187,310.25932826497075L144.10488480467757,309.5869120711118L143.5353597123142,309.03395248609456L143.08187307407724,308.28300939331484L142.59066093649315,307.8460934972851L142.11688058208182,307.1531653467689L141.6256684237367,306.5796993738369L141.0936086639528,306.14617681094484L140.80039041424294,305.6716881719311L140.62321059231175,305.21767956075996L140.30943846951956,304.6441882517746L140.01257770498947,304.1082342656706L139.54217964521507,303.5756919914182L139.40220499322206,303.2377250790166L139.1464520588808,302.4115814990788L139.2094146704169,302.19064058997577L139.38191129742043,302.5105874161799L139.71597716207523,302.78710110938033L140.12861619507902,302.8075874440249L140.66067596414902,302.4559648895275L140.52408357304242,301.9234018477878L140.3638152191643,301.70490832220116L140.48323596354012,301.21330181940175L140.85502737558576,300.74217684900583L141.073314970484,300.91970091979255L141.28796007408712,301.530798004004L141.46540006611102,301.80732629127664L141.56426694286708,301.37375543619737L141.6017322540061,300.98115453971394L141.64284003411564,300.25055893704916L141.7997261317586,299.6223656012608L141.95635204198092,299.4243479206317L142.34869732522122,299.72137817375267L142.6044502591746,300.01839811369837L142.72387099520657,300.2164129307806L143.09540224358398,300.31542405567336L143.569442756466,300.7319291199382L143.82519566991823,301.0084627100016L144.1015025180981,301.36692642234L144.3744270641632,301.6229770218866L144.51414151052253,301.54445598083L144.51414153730758,301.23037032019647L144.37442707164843,300.73534772578785L144.37442707266015,300.4588122976633L144.55160687019077,299.84769941878875L144.72904685121046,299.2399880034809L144.74595825695138,299.14098238647506L144.78680589446955,298.74494138209013L144.78680589174326,298.45132278176766L145.25746411803323,298.2532993772311L145.9464099704205,298.0006465684109L146.556782686621,297.9835767127105L147.3412130788053,297.5943539226199L147.6549852440632,297.39632630098237L147.30374778650926,297.4168071866077L146.63535582608117,297.4133964028273L146.2601821360415,297.1163573031511L145.98387529271554,297.11293838640995L146.4953811763975,296.6042058884638L146.82970723089343,296.1910691094704L147.55611841530657,296.13302722959577L147.96849725286864,295.9793746162198L148.22451035008373,295.52525941418565L148.28226942033524,295.231617050234L148.75630994867015,295.13259336168636L149.28498742049885,295.07796902314465L149.6021418815412,294.8799287709087L149.9533793606206,294.5077467448169L150.17166695364287,294.21409670739456L149.93282545941176,294.28921288158915L149.61905330761104,294.2892129039966L149.2475220907359,294.30628436795405L149.1861205700792,294.1901949298353L148.73601622100787,294.442872186985L148.5177286385928,294.2243379710209L148.77348153696698,293.73263961939733L148.93036764407137,293.29898116230913L149.04952818508337,292.92678385890804L149.2441398114356,292.6502020805566L149.73509176449411,292.4760521278473L149.9908446844992,291.86481539639226L149.91253173962906,291.6462663977821L149.9328254651477,291.1135581520695L149.95337937386603,290.91890864795744L150.0694178094449,290.76183188138276L150.65923664288258,290.4681528816081L150.44433132746036,290.3861900323151L150.0316922970571,290.40668278222165L149.598759565456,290.4032632846102L149.53735807663347,290.14714767012083L149.28160514625156,290.1266629027579L149.04614589727046,290.53986511296023L148.73263391933432,291.05208913738284L148.41886177618764,290.9906200420094L148.4971747396092,290.5364455942094L148.81094687773103,290.1847138960268L149.1655666580792,289.6110065417472L149.63622491965552,288.76749459404357L149.8339586257665,288.3132928573686L150.2465976215429,288.4328201637418L150.30461684135037,288.8084737714697L150.30461686866687,289.14315292873243L150.4409490339549,289.06460678931586L151.1093409954247,288.8528725763749L151.85630604962637,288.4020834244589L151.7402675842216,288.1254598991723L151.38564781156734,288.1220482922612L150.7172558522989,288.11862854620506L150.81612272856646,287.944457352215L150.99356268321458,287.76687369694787L151.08904724520525,287.64734418752647L151.56282761548508,287.3331457629529L152.03348585462527,287.022364475226L152.21092582715494,286.80379489976434L152.60301095492287,286.3529802770024L152.8384701432773,286.05584581332084L153.11451679974616,285.5264760770667L153.547709725444,284.93561089983666L153.70459581214965,284.6589606385685L153.9978140492427,284.34474402921643L154.35243383366733,283.9724555692834L154.50931993507743,283.61723961878374L154.84364600270555,283.26544026329424L155.13686425640512,283.1868812066623L155.39261720607905,283.1868811952108L155.82554992929164,283.19029326561713L156.18042986177673,283.09124527441486L156.3167620604526,282.8760634829419L156.51449576649762,282.61988595307673L156.4939418488923,282.3261401965084L157.16259396962238,282.1690258029998L157.27837225020306,282.13145116131307L157.6740998291042,282.0528895242842L158.02533736299884,281.97432771639905L158.2810902814134,281.8786884467089L158.63571005270018,281.84111346435554L159.2052351392634,281.8616111289363L159.6178741723383,282.22025724089946L159.9350285994332,282.4764296007505L160.12938002172484,282.9512029873421L160.26909449450915,283.3269225417612L160.4465344732394,283.58308671336874L160.95804033570914,284.1773865250999L161.2137932878621,284.69312063050285L161.46954619145114,284.8502318076269L162.03907130518425,284.9117031595544L162.60859639395446,284.795584170739L162.98012762072915,284.6418846920811L163.43387441755007,284.563328729466L163.76794031303123,284.6623807050323L163.82595954388586,284.86047567340233L164.00339950114704,285.11662864036794L164.14311398504267,285.5128123785967L164.39886688864084,285.45475393645637L164.65461982154733,285.7109025993919L164.94783809254233,285.99095648295463L165.50045175949268,286.3290734510315L165.57876472143957,286.6842622177587L165.5004517539268,287.2341093736116L165.47989786475472,287.53122592427843L165.81396373103343,287.57221463606174L166.24715664018768,287.43560172582073L166.5403749272742,287.2580155975296L166.9530139478182,287.1043348773991L167.406760728886,287.0838402354707L168.58665855736186,287.326322415103L169.29251584526043,287.5073199044783L169.72544856786737,287.6268498948342L170.70761265701233,287.8898225986644L171.06223245718007,287.93080276156684L171.6148460901578,288.0503313165595L172.2423904434841,288.13229124000236L172.79474392717702,288.11521693438135L173.22429436081921,287.8590854137143L173.657487276063,287.6644186824685L174.11097390224933,287.52781426456704L174.34643311810814,287.49024534238316L174.83738508179033,287.55172028877985L174.97371726945897,287.6097753756242L175.22947018862152,287.82834820725606L175.50577702149388,288.3235357251881L175.802377559001,288.60015777888935L175.99698916602,288.42257732170407L176.54934265845935,288.3679351080066L177.25519991010583,288.13229124139497L177.6098196955062,288.1152169479269L178.19989868814775,288.09814264536476L178.61253769400162,288.0195943085925L179.5366825980263,287.96495148521103L179.6404927613135,287.9717258704802L179.57414791512338,288.1630281938991L180.28338747468692,288.10497398645543L180.71658037538504,288.0469115853705L181.1666847575279,287.9308027323898L181.4804568858139,287.7941993367627L181.81452279006623,287.6780815647757L181.9919627684937,287.57903793781435L182.34658256724057,287.58245773194903L182.68090861782753,287.58245774387393L183.3493005475078,287.46633928219256L184.23233763891886,287.3126594496431L184.4097776121974,287.23410938387286L185.0576156531676,287.17946538703325L185.4327893503966,286.96430846312956L185.944295181433,287.124821327453L186.14202891734993,287.4219469116561L186.35693419460722,287.459507809561L186.81042085039604,287.4834138713542L187.08334539476476,287.38437785788244L187.2230598721075,287.1692221793636L187.37994592609738,286.97114001320676L187.55400361622208,286.8925892076335L187.7517373442564,286.8550196114295L188.06550949642067,287.05310238342355L188.22577786941378,287.2511840921338L188.6553282895684,287.4321900671133L188.98965436668874,287.39120933759887L189.30680880749634,287.2750902608096L189.42284726504494,287.0804285596513L189.40229336599407,286.90283250038925L189.42284726632437,286.6637673545613L189.4228472906052,286.4076255078663L189.3442741507381,286.20953914890737L189.34427414493751,285.9158234624766L189.50116023421242,285.8953281714796L189.7569131680894,285.8782528223945L189.91379923907795,285.82019497695904L190.05013141038347,285.75871705159136L190.09540205627894,285.68661265872925L190.1489982581102,285.6016099165924L190.20701751346388,285.2874016891528L190.26841903625777,285.06881334004146L190.4047512181627,284.9526867316375L190.40475121743253,284.65554870220217L190.40475119790534,284.37889619546416L190.38445748577146,284.1227378377415L190.52078966526938,283.86657765403L190.79709649558245,283.7504470222984L191.0528494413578,283.43621415713494L191.09031478037906,283.1800488894545L191.18918162770103,283.0024414109176L191.48578218008012,282.68820175499707L191.46548846156384,282.53108085418324L191.3666215979864,282.531080862438L190.9539825666777,282.3910444574686L190.95398256812328,282.1929354375004L191.03229554812313,282.0563017083234L191.20973549846312,281.8581989449536L191.18918159976627,281.66008685431876L190.87540945217563,281.50296127076683L190.71852335999785,281.3253369958178L190.67767574331754,281.2057855691246L190.61965650177285,281.1443076561404L190.44247670371988,280.9666815029985L190.54134356278138,280.78906258951037L190.83456184646997,280.6934199605152L191.03229554944943,280.5943566096734L191.20973549960155,280.43722614256603L191.2677547462227,280.2596044248843L191.34606770762554,280.1024723678587L191.45169910620132,280.04543098179806L191.5609730028503,279.9863371877113L192.0930327798689,279.98633720475294L192.5839847542147,280.0102483698857L192.8191837873597,280.3074263676696L193.21491134759611,280.5055462865379L193.4875757291561,280.6251001919184L193.78443643939852,280.7856421233552L194.04018936376076,280.9222809274554L194.39480916683442,281.0247474677418L194.66747351663093,281.1033114533742Z" style="stroke: rgb(68, 68, 68); stroke-opacity: 1; stroke-width: 1px; opacity: 1;"/><path class="choroplethlocation" fill="rgb(246, 210, 169)" d="M488.00776025574436,178.56914836425395L488.9899243084402,178.8298785559606L489.4808763028004,178.8333139309373L490.95399235201967,178.840184671363L492.0555771894395,179.10091094205646L493.7878285025258,179.20725825736142L495.0257455088923,179.37192282784525L495.7318629948183,179.75272626886098L496.6763015915525,180.60690789636126L497.2866742635649,181.02540427967114L498.01308547458655,181.44389105313854L497.77788641423007,182.6718651991089L497.4266489372787,183.30641199094862L497.24920893044794,183.83803524306057L497.6415542636496,185.66257027335882L497.8392879238223,186.1598346694999L498.9031473077638,187.13373685576914L499.4318247429195,187.9292838624254L499.53069160062523,188.66307537020282L498.98172042992417,189.35226944367076L498.0370216659845,190.19913926402026L497.6449365362578,190.61400151069597L497.273145142885,191.12826701793475L496.6253071212727,191.75909249720527L495.93636126900566,192.46873805037626L494.67789030361155,193.80909869381532L493.95173929728134,194.81689840738684L493.71628009092296,196.0439969163396L493.443615775218,196.894002982168L493.36504263513746,197.80566436363065L493.36504264976554,198.51508812372256L493.1092897112833,199.62544495672876L492.9932512056254,200.35535934985404L492.9524035976616,200.85224267516818L492.97295748713043,201.20861064481562L492.93549218043745,202.236584598699L493.0718243644271,203.04864923708004L493.31040564985517,204.23754781405765L493.50501728169695,204.5150633605414L493.3684249224332,205.1283223095408L493.2320926985906,205.22424906527294L493.034359037,205.58053972625285L492.9557859162791,206.05672782253427L492.5431468658277,206.56717605895403L492.09304251694203,207.4373003667229L491.6190019946238,207.79012240110964L490.6368379416472,208.20118520789765L489.55580696458753,208.85201524209802L488.20211165216904,209.6946371969036L487.6700518678817,210.10909210417984L486.90279307668,210.7393007105173L486.31635658092154,211.19141187986875L486.07751507703074,211.60582096043876L485.64796461771374,212.31819352189555L485.03733171589477,213.34218403073334L484.7815788337149,213.9928549650331L484.82268658120756,214.50995165806822L485.2761732553244,215.06468956669815L485.43305931530915,215.383159764945L485.6102390907447,215.8967941321902L485.7671252004378,216.4515126727598L485.76712516800274,217.06442306341577L485.80823299260015,217.4992738263474L485.5899453661046,217.99231948404682L485.19760008598325,218.38605908990098L485.4330593402209,219.10163571459094L485.7705074711588,219.37895604327738L486.1048335350788,220.16980663242379L486.08427966707075,220.56693540639012L486.26171959189776,221.12153578561575L486.69465234238874,221.3200843718254L486.694652345056,221.9910522705602L486.5583201823442,222.44634040978204L486.45945333303735,222.68255060139276L486.3400325930678,223.29528815210173L486.1662350810238,224.00727943741663L486.0262604068792,224.28452247043822L485.6750229157184,225.1505056970648L485.4772892373777,226.2389361521108L485.2829378030159,227.42312705654987L485.22491855754834,227.74142072327712L485.14660562579655,228.09393110753828L485.20462483597953,228.7886550147933L485.3818046773281,229.32251045648317L485.4023585551728,229.89401520243763L485.43982385142385,230.1712037517587L485.4806715242804,230.94456328855483L485.4023585280984,231.43731688912942L485.3648932066311,231.9095341787044L485.2863200700812,232.32698537178769L485.20800712749576,233.13450457402448L484.91114639201544,233.6477373171975L484.6587757680295,235.26949523341452L484.1849954413178,236.47034670328728L484.1064222682238,236.86719706173923L483.9326247958038,237.7942981771157L484.10980454647165,238.44769972938968L484.44413063760965,239.35763083189062L484.48159597621145,239.45683647566867L485.075057224784,240.50696995658473L486.3504396338206,241.44078543777235L486.7833723651519,242.07355779096943L486.8822391779836,242.52846167573415L487.31543210507925,243.55795095274107L487.3937450192645,244.2693416213955L487.3937450358254,244.70369105273073L487.49287206863437,245.4150499844605L487.4757004914462,246.06823846277806L487.39738748795907,246.50255767550127L487.3188143821301,247.15231079016368L487.1824822089048,247.66525636613792L487.2199475556564,248.16110355353212L487.3188143658841,249.0091372453051L487.31881435838636,249.42632028420297L487.33936829562646,249.78192998371352L487.35966202573303,250.37347733132438L487.6154149556889,250.86925763851272L488.14747467130337,251.7787677715222L488.7169997946601,252.65061987894174L489.0513258437555,253.30364693473265L489.6819922533749,254.0968086867937L490.01631835152307,254.7087696878435L490.05378366894774,255.53951451498443L490.84159633572983,256.7086707157555L490.86189007039013,257.0436797131305L490.21405201913245,257.8093996386684L489.70254617881164,257.96664547702295L489.3479263855057,258.0828718186581L489.0136003357964,258.1614940959113L488.798955221508,258.2196028783983L488.5054767462394,258.3563332242219L488.36576226270176,258.55459394615514L487.83708479395386,258.9647864136183L487.6018858124817,259.163042896397L487.2847313114991,259.41598963933757L486.61633941762017,259.8295843176802L486.44254188307457,260.18506023929626L486.0876619503365,260.4585096220744L485.6955768369325,260.61574089392485L485.4978430808567,260.7319483047632L485.02718486432013,260.94728128142214L484.7305843190705,261.14552408457786L484.5736982115891,261.3984534360564L484.2973914184466,261.4189644251434L484.10304000020835,261.4189644374778L483.94615393153487,261.1010953945518L483.78588551838413,260.8037261209622L483.6904009880043,260.44825785947324L483.4721133648485,260.09277706608964L483.2949335616054,259.95263229099197L483.00145516832106,259.8740149485549L482.687682962273,259.7338772587268L481.9581496940008,259.63133244095627L481.408918341674,259.2553290320866L481.0748524592266,259.25191432152656L480.66221343557226,259.23140181908485L480.3653526930106,259.0707482938588L480.34505900047026,258.7972937446337L480.2870397401199,258.2811344607277L479.87440073788173,258.12389038524384L479.6392017030972,258.2982247191527L479.32542952779056,258.75285327489354L479.20600881956835,259.1459531228121L479.12769582013505,259.30318336791663L479.08997032634034,259.62107224242084L479.02856881412936,259.8159095555843L478.9502559013082,260.0517613649862L478.59901838574507,260.1508818862891L478.4593038987656,260.1884829441175L478.4387499856645,259.97314430428776L478.53761687844485,259.7372918991313L478.55817077295717,259.3818022650853L478.3601768892397,259.16304285602484L477.92724414442654,259.22114957234925L477.73289274564524,259.4740958260084L477.6134720175028,259.9492177093562L477.35771903931925,260.1269554597832L476.8290415814263,260.1645564768178L476.7301747182246,260.065427820918L476.78819395956015,259.5492914540382L476.86676711533823,259.25532900812675L476.9450800743102,258.9579488427755L476.73017474061,258.6810703324005L476.2561341935709,258.69816034736454L475.7857361471248,258.7357632858095L475.3150779003467,258.7152503794626L474.9807518570645,258.6161248229798L474.6466859524451,258.45546783535065L474.29206615562845,258.4349547004947L473.8588732384909,258.4144497271473L473.52454722395646,258.41102685051226L473.8383193564773,258.59219709680247L474.1146262108027,258.7904561730544L474.19293917283204,258.8690764516497L474.2715122654047,259.00580370418885L474.27151228712364,259.1835472789394L474.2509583962891,259.4399166887889L474.0566069367778,259.58005586304455L473.7428348064353,259.6381699038477L473.05414913655716,259.29976869779955L472.30718405602374,259.0775858185915L471.75483061029365,259.0365686645105L471.0489733076329,259.09126091007886L470.694093356389,259.0331457957712L470.3020082458622,258.9100938598088L469.7905023619347,258.6708179331377L469.55530334193327,258.63321491361955L469.5141955550808,258.9887138515634L469.5141955677766,259.1459531151347L469.2381488861474,259.3031833687144L469.02324361424166,259.5561289003751L469.02324359288497,259.73387722446694L469.00268971251137,260.0312493687587L469.0026896852569,260.25001027488526L469.00607195218987,260.48585035541623L469.2415311830577,260.9609555091656L469.1629580493413,261.21730089862683L468.8663574938927,261.31301116134955L468.41625314659234,261.37111353037125L468.21851944699085,261.39161642531576L468.0036141707926,261.25148609618213L467.5295736120509,261.148946709962L467.2363553365534,261.12843547399694L466.6837417149222,261.14552408020404L466.5882571540743,261.2070493690049L466.48939026885296,261.5420056017696L466.6054287545818,261.85645543915706L467.0589153498008,262.0957048989208L467.5501275348811,262.3554627526193L467.9455949030204,262.67331813597576L467.98306026931607,262.98774762507264L467.88419341199045,263.30559610400644L467.45464292591356,263.30218189077596L466.9600485044373,263.0048432525603L466.66683029134435,262.7074934431372L466.1142165810155,262.6049591518866L466.13477051903,262.7621788152586L466.1756181437986,263.15863835415155L466.1553244272542,263.3363564807863L465.5652453869021,263.60977632884214L464.99572033840843,263.7054706266918L464.6241891034522,263.76356831296755L464.30703467204654,264.0574851387488L463.73750957031416,264.4710140011655L463.6794903257078,264.6487324100873L463.7578032745056,264.98364940566717L463.7578032975244,265.1818649788444L463.8192048021807,265.43817360347055L463.6420249803237,265.5748700656441L463.16798445517975,265.2775541788537L462.6393070176114,265.0178220605694L462.40072566592863,264.86061443534095L461.8720481718994,264.74100114344685L461.85149427839485,265.11351182357726L462.18582038897205,265.373243160627L462.40410795576463,265.6705580407486L462.4041079338803,265.96445614725155L462.0697818908818,266.0430571771474L461.97091504960605,265.9644561379034L461.6368491473143,265.6056281243845L461.33998845836396,265.4689318020585L460.98536863451056,265.5270259730278L460.6341311790682,265.70131605013614L460.300065260419,265.6398000584515L459.80885314071344,265.83801128943276L459.45423338178836,265.8926909159186L459.1984804339926,265.4996899070779L458.76528750836195,265.0212360495873L458.19602262972796,265.13743420640947L458.07660182506,265.4347596585701L458.5300885003039,265.6739801379335L458.82330675892035,265.93028454078785L458.7449938124762,266.1284938468822L458.1380034011502,266.0259713977583L457.7253643595709,266.1250799798494L456.1497389829882,266.2344298340564L455.2869955903619,265.79700361068996L454.67662288350004,266.32670185440486L454.6971767885246,267.35530615031786L454.6391575507631,267.4920021283174L454.4036983410298,267.6902011894481L454.12765169644973,267.7858825307686L453.99105936088597,267.8063809464917L453.5784203190416,267.7038641654263L453.1623990618283,267.46808160557947L452.7703139433183,267.3655636660667L451.8870166559935,267.56034172770626L452.0030551640101,267.9567376953479L452.5351149147578,268.5684063578758L452.79086780150135,268.9067016990132L452.91002838167174,269.2415716356341L452.7531423187147,269.37825102616455L452.35767492729633,269.20056852543456L451.7678561099987,268.8417786811962L451.14031179518093,268.8212727833662L450.5707866844293,268.7187594202079L450.2161668825088,268.5786634872777L449.7829739722473,268.41805259728847L449.78297397917635,267.8473859573253L449.56806866508737,267.49200210055665L449.2714681583172,267.095600115306L448.80080989295857,267.2117820766985L448.858829145556,267.5671773016755L449.11458205103014,268.02166261346895L449.23400277994483,268.4761493199254L449.29202202966326,268.8520275709301L449.23400281657086,269.0673018737359L449.07711672346943,269.18689808389416L448.8588290937955,269.1868981105564L448.48703773593513,269.00579275139586L448.0743987026502,268.8451922374859L447.6994851784385,268.8656981293826L447.1502538464554,269.0980564244062L446.38299507482037,269.3543319583281L445.77262232000413,269.84296622283114L445.42138483576275,270.1983309942917L445.16563190935886,270.53318695857513L444.90987896419006,270.5297654574147L444.7121452465447,270.1744125922077L444.5552592126812,269.9386408049289L444.2006394050785,269.9762295319725L443.61056043950657,270.1709910000819L443.4945219572411,269.7370346393741L443.49452192959143,269.41925392054594L443.1773675054359,269.063888317508L442.50897558256486,269.4944325116874L442.0794251401776,269.6891970376778L441.4893461030165,270.02406664495686L441.44849852096473,270.1812394524742L440.9369926620556,270.533187002218L440.38802146888196,270.2359112483481L441.0767071226413,269.80537739685553L441.3701855806795,269.37141585696804L441.19274559623807,268.8759470057362L440.4460406871558,269.0502178665395L440.2686006941193,268.57866348557866L439.75709484853803,268.2984534435074L439.5796548850142,268.8110239305979L439.48417030876203,269.06730190579253L439.1092567759258,269.2415716349578L438.7543768366106,269.2415716346907L438.67606389744475,269.0433825699499L438.7543768501476,268.6709202634803L438.7340831186028,268.1959382902288L437.98711804871874,267.83713672831794L437.7144536570392,267.676530077226L437.63588054751733,268.0934228508674L437.7519190260048,268.4283097919248L438.00767192143314,269.23815812570206L437.9290987893528,269.8702983918612L437.7144536602324,270.0855655946191L437.55756759387305,270.1846610498127L436.69144192146655,270.4580109015636L436.6914419523215,270.0035615316458L436.7117356487097,269.6276973191862L436.8483280235066,269.1356461249668L436.9880425024767,268.916950565296L437.18239393217243,268.4863982915686L437.1040809682563,268.13101375950487L436.5548496168037,267.98749333614217L435.6681700736143,268.33945774709366L434.9997780832501,268.81102393313137L434.21560788514955,269.28257470352065L433.4483490734848,269.614027047974L433.15487062028706,269.6140270573693L432.91628931613616,269.4534297565557L432.40478344845934,269.1356461128164L432.22734347093433,268.8212727739983L431.97159052083475,268.34629314212236L431.60005933044795,267.9669868968746L431.0679995630053,267.7687977594398L430.65536058052555,268.281368936351L430.36214229728216,268.93062113110085L430.3041230528693,269.2859963614928L430.00726233520714,269.69945380920785L429.7926172147433,269.08438592704556L429.2605574290412,268.8861958740261L428.4727447428959,268.9032799920142L427.72603985536296,268.9203723018574L427.1973623504111,268.8588628679588L426.5268890331813,269.10604850462835L426.8052772454988,269.23132290717933L426.90076184135285,269.88396850456263L426.7472580093946,270.96712411441814L426.72670411961604,271.896492110218L426.6075435778287,272.58666764036377L426.2563060379873,272.7609177580047L426.1571790492536,272.2279167473455L425.86057850033274,271.951160893553L425.5673602420626,272.5798413270023L425.1341673270305,272.8565834726256L424.8001014235062,272.6379221125017L424.3294432066282,272.4363332349548L423.79738341443567,272.7916686719839L423.66105122840486,273.3246602493567L423.22785835613433,273.99088926432825L423.12899150713775,273.95331352010095L423.05067854212007,273.20166678127555L423.03012463028927,272.82584083501655L422.69605875527714,272.31333628844027L422.2456942026307,272.13224909138563L421.6353215395118,272.34750082363746L421.8910744360287,272.6242531560421L422.2662481361805,273.2187485295448L422.18793515750303,273.4544957260971L421.8333153655828,273.4920720595331L421.37956856716227,273.2939098801303L420.9874834411514,273.1538344898329L420.39740447562116,273.05133525106135L419.98476546988616,273.4647430703579L420.0053193828793,274.1548846256452L420.0053193900343,274.55119716768627L419.7701203440374,274.96458565188755L419.5518327464762,275.0226620729383L419.43579427660796,274.8825941872707L419.31637350511306,274.51020090775165L419.1800413473545,274.07289116570666L418.96175376479107,273.6765727257019L418.62768785604663,273.36224494485094L418.2150488131871,273.3007442017276L417.8604290368082,273.67315151688877L417.8807227591137,274.02847313240557L418.0376088601186,274.48286467623274L418.2558964462362,274.7015215573778L418.7468484153194,275.2378943457421L419.02315523159217,275.6717755291969L419.33692742075004,276.0680694752484L419.51436740564185,276.4643586321678L419.3777750538043,276.6215078801424L419.14257599881194,276.65908054735047L418.7674023425059,276.57709336836785L418.51164937296596,276.34136891298476L418.1978772116713,275.88359065151667L417.9626782017013,275.4907073039366L417.64552375133036,275.0739126529487L417.3317515674868,274.5785252150259L417.2123308218567,274.3427944312187L416.8577110513665,273.946479340844L416.42816062735926,273.6287411387576L415.8552532423564,273.567240955755L415.71866086882204,273.9601395449016L416.073280682165,274.37695678861553L416.5064735790786,274.5956062316525L416.7416725737497,274.83476444477617L416.95996018835604,275.4257978216135L417.11684628338116,275.7811001508932L417.3523054818673,276.27646110391356L417.57059309330134,276.9494629994824L417.39315309189584,277.2227550658175L417.35230549326934,277.8171661247327L417.2942862634681,278.1314509434976L417.05882703815524,278.2680923659468L416.7042072734734,278.1690300498393L416.349587498964,277.950396267035L415.8006162611176,277.6326971529687L415.1491357594457,277.0382827708179L414.3238577264589,276.4814386945575L414.10921263654683,277.2705813820924L414.4229848009357,277.6839436170656L414.69903141411845,278.1792758889119L414.8559175013321,278.5755397063012L414.7570506922367,278.69168787629485L414.22837318913395,279.0264556721709L413.9523265286854,279.0640256566061L413.6591082471413,279.2792396377507L413.46111439709534,279.4568665095519L412.83383024055394,279.53201350488007L412.57807729913054,279.3543870516007L412.47895028957555,278.9786318949626L412.3223243698389,278.5652939712728L412.20290363450977,278.3261630154091L412.0460175476735,278.0699592688702L411.69139775533677,277.87182491804145L410.97461311144247,278.06397298279785L410.9649866247046,278.0665466628599L410.1191546871514,278.8112481892106L409.7476234812801,278.98887757211094L409.5496295674503,279.14259419469124L409.29387667053646,279.00595632841816L409.01782998619444,278.86589723089537L408.4685986250136,279.18017213289914L408.42775101008993,279.53543410579994L408.11397883944403,279.77113587719856L407.5650076319316,279.9248489277425L407.0160364665678,280.2971811534219L407.1523686580478,280.6934199454027L407.5275423113759,280.990591976341L408.0184942888485,281.2672715570025L408.3902856892539,281.68399683762607L408.7857530883432,281.8035466062373L409.15754445206966,282.0221472503465L409.2155637058463,282.31931591014876L408.8029246983972,282.53450114060274L408.311712526109,282.49351474955466L408.1345327472583,282.5925644315721L407.7424476410471,282.76676195926655L407.96047505287964,283.5386813831682L408.5300001338184,283.9143945676244L408.7482877316213,284.43013251981415L408.78575308761305,285.15761195739714L408.6494209143973,285.4342583444254L408.27424720609906,285.41377094618156L408.07989576823564,285.13712439877486L407.663874468636,284.6623806990517L407.17292252496725,284.5018567231808L406.99886486008785,284.8160719260624L407.2343240729145,285.15078006170364L407.2920830958941,285.9807129270227L406.87944410261326,286.4144571645629L406.5862258015889,286.4110372753672L406.25215995333497,285.82019495486577L405.8769862703536,285.68016358167574L405.6417872054599,285.482073200915L405.42688193120097,285.71773438483046L405.5223664506734,285.9943764108323L405.307461143828,286.209539160345L405.0311543305826,286.3256535271802L404.6970884575163,286.796963307665L404.40387020976357,287.2102031690648L404.2469840888241,287.3877895350911L403.57859215757196,287.9376341373364L403.3228392173942,288.21425092852417L402.9679592849004,288.96215541563544L402.7327602696374,289.0987544977822L402.2621020188132,289.4504965294133L402.1632351673224,289.80565476541756L402.7158488166112,289.66905834995794L403.2273546875614,289.8295592826547L403.50001901552565,289.8910303253183L403.8751927156354,290.0515303038803L404.13094566809116,290.328139368979L404.20925859951757,290.74133932585073L403.63999367233055,291.05550861658577L402.9918954552536,290.97354706688463L402.71584880992293,291.308198519045L403.09076232077723,291.82042019959306L403.3465152403567,292.57166332185693L403.44538212166043,293.00532188014455L403.3465152684897,293.8145870563675L403.14878156760665,294.2482397149282L402.85556329467454,294.76042190802485L402.59981037347205,295.01650636593837L402.14632370684524,295.1496726034935L401.6176462497583,295.3477114964363L401.0481211471596,295.77792796338275L400.9287003901019,296.1910690752102L401.16415962311515,296.6451766116369L400.92870039798845,297.3929073519564L400.2808623271029,297.5704542653916L399.2781443665859,297.7411625160355L398.5108855790927,297.8196908662002L397.42985459165317,298.28743889756873L397.0377694853348,298.4820514385967L396.27051069479603,298.63568631937767L395.7623870926201,299.2058493096081L395.76238708539825,299.4448359136126L395.2714351277153,299.44142529208125L394.9371090962989,299.18536114997323L394.40504933371363,298.8644362354644L393.65834444271775,298.44790394727886L392.3795797489594,297.67288254881885L392.024699842117,298.2635396366827L391.9669407383206,298.75860024671186L391.88836766144465,299.07269663788963L391.53374786543884,298.87467630104186L391.3188425304435,298.02454597605265L391.0427958687406,297.35193744763L390.37440396828663,297.03440861830234L390.19696397162363,298.2157409774992L390.4732707903976,298.78932056230934L390.51073609668396,299.1068354441607L390.1797923438078,299.499462384434L389.64799274447034,300.04912560668674L389.0579137917517,300.5578147301497L388.5464079068024,300.7558269571891L388.33150262422396,300.45881231474834L388.25318963161817,299.98426003984815L388.23263572237795,299.5711580002799L387.8199967646433,299.4482465318611L387.1890701315624,299.76234571558746L386.6809465759798,300.03547528644754L385.42273579746495,300.14813713298173L385.5182203318458,299.75551646419467L386.09112776303766,299.6018858295781L386.2071661718792,299.2638866710717L385.4396472194305,299.20243867189083L384.6723884126536,299.1409823922711L383.86766430228624,299.11708362741894L383.4344714181738,299.451665260984L383.35615844428736,299.64626408478745L382.9229655334233,299.4892224750322L383.3970060873918,298.8576067724647L383.55389216100554,298.03137559006814L383.47557919322855,297.9904063030135L383.062940159797,297.83335009332177L382.70832037860714,298.1645316255381L382.5717280558458,298.56057837096336L382.5888996735308,298.87467625963245L382.19681450263647,298.69714333196475L381.99882067070115,298.5196014213576L381.763621594008,298.06210458152L381.4670210931608,297.1948787206418L380.9588974792865,296.9149083501267L380.6825906925324,297.22902732412405L380.6620367892138,298.03820513475034L380.7609036405163,298.57081848699636L380.9177897093794,298.966861253238L380.50515068138054,299.3219321819423L380.2905055679351,299.04196845190654L380.2324863114694,298.27377981746764L380.38937240651364,297.9016379632656L379.9561794892416,297.7616514097696L379.30495916669247,297.758232535113L378.75572781184803,297.77531061475L378.02957679334656,297.51582514016843L377.85213681570656,297.57386498106507L377.3814785638415,297.9869874112873L376.8291250633152,298.37962517310626L376.7130866379796,298.04161585320287L376.7505519638738,297.23243810529794L376.80857118558026,296.7032177543413L376.35846683628597,296.4232438548274L375.5298065141097,296.0647119439252L375.4410865356865,279.0606131517418L375.8401963886934,250.21959575804433L376.05145921856166,241.40999208733183L376.22213465448124,233.62721276404815L375.86387243926447,227.20067468006502L375.8638723898923,227.10141817964137L375.9629994587664,226.98505813113002L376.1981984571165,226.68730092793635L376.4947990486411,226.31423817532118L376.6108374634068,226.1773267307408L377.4361155150765,225.29085068696892L377.5555362601703,225.21211787784986L377.7907353008864,224.87668433006024L377.96817525321126,224.67816715959069L378.2033743317712,224.2434568868407L378.3602603714336,223.73342797745875L378.5374401821268,223.377438975241L378.71488017003384,222.82289459749612L378.81036471153936,222.40869937313525L378.8103647035648,222.30942196533184L379.14469081137224,221.67953398977266L379.2024498376856,221.20369457349997L379.4379090749666,220.88873722201708L379.5776235491748,220.57377532434637L379.73450963349205,220.27593362300976L380.0277278384741,219.90276470346933L380.34150004555084,219.5877888163388L380.69611984198707,219.5706800187328L381.20762566672005,219.47138988425937L381.4430849047638,219.39606498192416L381.6782839198996,219.37552772763388L381.75685707025116,219.37552772844361L382.3466758631763,219.2214649198177L383.29137463096856,218.810614645889L383.8234344134007,218.29704911942332L383.959766555378,217.8622142754276L384.3724055920274,217.31096040066174L384.90108305365845,217.0541533253394L385.4703479677337,216.72202546145056L385.9649424271979,216.40700374979684L386.62995208768524,215.95500319285543L387.2197708576667,215.62285843986953L387.65296377925426,215.2872795627022L388.1064504288993,214.69486043196065L388.5362610508624,214.18462653618207L388.83286159555973,213.68806464485664L389.1057861249589,213.23602312617703L389.18409912046155,211.93118550540763L389.26267223253836,211.39689445591438L389.57644438450177,211.08181058530033L390.05022476675936,210.72902793915603L390.6777690557014,210.29403933414596L391.0904080775669,210.04057758950051L391.28814176791616,209.94125971158354L392.36917274051757,209.25278345164227L392.5635241782629,209.03698989705822L393.1944507348877,208.48550728561028L393.6651089806823,208.19091117610034L394.19378645236,207.91687556827503L394.62671922654175,207.54006042016016L395.0393581977184,207.06732071063155L395.492844882963,206.6939367357601L395.78632329711684,206.37876518453857L396.3181228840071,206.0841389081476L397.6549067596388,205.23795516911613L397.8117928421031,205.15914893426094L398.12556504391677,204.94331249810773L398.6167771843842,204.68978499843553L399.1863022346233,204.4944952888698L399.54092202982304,204.31634123499848L399.6364066213529,204.29511948877544L399.8955418328577,204.23754775612463L400.5025322502793,204.14161636210162L400.9934842096876,204.14503082946268L401.81876221332135,204.16901371260877L402.784014885362,204.17244453323192L403.45240683674825,204.076512799228L404.1582641355022,203.92233827623727L404.71061760285284,203.76473163994538L405.33816193516253,203.29190447263244L405.8702216947963,203.0554949013684L406.46004051753175,203.0383562929553L408.05257729373596,202.27427791478672L408.50268165711174,201.92134379485404L408.5812547941788,201.24630585480955L408.6595677333173,201.0886782663005L408.9153206819856,200.71516759064696L409.46455204612613,200.65691570549748L409.8771910703024,200.48215897396378L411.1559556961844,200.0126858007283L411.2139749788611,199.59460983464623L411.0945542004389,199.2004975357032L411.27199416522177,198.62475717841207L411.6060600516051,198.0935486312049L412.1961390757624,197.6788638308764L412.76540397442386,197.02767256758327L412.9222900756131,196.27705808444395L413.57038828230714,195.073968206276L413.86360654415745,194.40212742169848L414.4159600040558,193.7885357951889L414.8457706594037,193.03779553496392L414.9854851514865,192.40702868129577L415.24123806515524,191.97164078203573L415.51416261463385,191.85165151393284L416.0665160745375,191.28254225559257L416.5746396672351,190.66885037910944L416.8884118374519,189.70199878549127L417.1272533073575,189.2836830354734L417.61820528090277,188.75221603348328L417.8911298509967,188.4779093450706L418.0102903699114,188.12130625474575L418.06596804644624,187.98826100716354L418.1263288503408,187.84355663236425L418.99245448741283,188.0835854069762L419.5039603425479,188.14530890422273L419.89630567829965,187.99100788640988L420.25092543548544,187.8538413268337L420.70102975304667,187.9738560272865L421.78544300993246,188.21731670674197L422.6687402821558,188.45734068068336L423.2585591121409,188.39905175551908L423.8077904585669,188.38190019486342L424.63306847562615,188.44705633754228L425.42062099111865,188.52934724060415L425.7343931833273,188.54991584706204L426.2870068062406,188.41276969745968L426.8359780505986,188.09730358813064L427.7601228945749,187.90528093846018L428.50682779874035,187.55208427846566L429.21268504742454,187.45607045070636L430.27680461447153,187.38062596033325L430.59057678016546,187.4012121208954L430.94519656240004,187.10629908820843L431.37474700254603,187.02743573007248L431.57274084587425,186.77024030876453L431.5727408474812,186.3964512178632L431.70907306890604,186.23870170761649L431.88833426721555,185.90561976303854L431.73378975272345,185.7938988383212L432.10454045117024,185.76202746829563L432.830951607403,185.40879004572798L433.6153820380139,185.05554586011954L434.51897302552266,184.58569330749512L434.83612744444116,184.86349172077982L434.9727197797377,185.34020550770978L435.7602723133578,186.39301722928934L436.4663897645953,186.5541993421515L438.57043244119507,186.04665991078394L438.9830714510456,185.73458765990034L439.5934441945218,184.7640460522377L440.51758909031156,184.37306106397705L441.0257126306907,183.89975657595906L441.69410461071675,182.94969270101188L442.321648926492,181.82465073582017L442.8534484942052,181.84522681299745L443.7981472787835,182.12650167267313L446.1376491413347,182.15736526913756L447.27643913677645,182.22254337688577L448.00623261212536,183.07660844280613L448.73264381442834,183.02172076192878L450.1480008075643,182.84680202803375L451.20847787526134,182.8330799243943L451.8394044824934,182.99429324137887L453.29196663286876,183.85174024642947L454.61183907675365,184.0369525220581L457.0671192608366,184.56168604240693L458.4039031782168,184.54798160329716L459.44746879992033,184.33191460515408L460.38878526246276,183.80372375224974L461.46955606318056,183.88605167492585L461.8652836127621,184.48281174731932L462.12103654324767,184.50338483384562L463.3383997290433,183.85517465377143L465.00950966056314,183.06973931802148L465.89280692915736,182.89482100210253L466.89526474039656,182.81935788075376L469.4699656656612,183.04916461372838L470.2577783198435,183.03200811924572L471.29770149220997,182.7987828580091L472.12636183878203,182.24655372495928L473.00965908933154,181.8555148230813L475.2297402275425,181.23122215820956L476.8017231434013,180.99795737680375L477.7261281430192,181.37872648287566L478.4148138631858,181.56052911843025L478.86830045205284,181.78004739540606L479.5744179376478,181.74232985297337L479.98705695726727,181.74574832009276L480.95204941839035,182.16423475708666L481.855640372326,181.73202544672748L482.42516550745097,181.45761413809873L483.2301498156137,180.0957680465579L484.36893976982367,179.46456024839205L486.08089736705926,178.66177365723047L487.1005267815484,178.03051531568028Z" style="stroke: rgb(68, 68, 68); stroke-opacity: 1; stroke-width: 1px; opacity: 1;"/></g></g></g><g class="layer lakes"><path style="stroke: none; fill: rgb(255, 255, 255); fill-opacity: 1;"/></g><g class="layer frontplot"><g class="scatterlayer"/></g></g></g><g class="funnelarealayer"/><g class="pielayer"/><g class="iciclelayer"/><g class="treemaplayer"/><g class="sunburstlayer"/><g class="glimages"/><defs id="topdefs-3c1810"><g class="clips"/></defs><g class="layer-above"><g class="imagelayer"/><g class="shapelayer"/></g><g class="infolayer"><g class="cbcoloraxis colorbar" transform="translate(10,60)"><rect class="cbbg" x="595" y="0" width="94.921875" height="440" style="fill: rgb(0, 0, 0); fill-opacity: 0; stroke: rgb(68, 68, 68); stroke-opacity: 1; stroke-width: 0;"/><g class="cbfills" transform="translate(0,32)"><rect class="cbfill gradient_filled" x="605" y="0" width="30" height="398" style="fill: url('#g3c1810-cbcoloraxis');"/></g><g class="cblines" transform="translate(0,32)"/><g class="cbaxis crisp" transform="translate(0,-60)"><g class="ycbcoloraxistick"><text text-anchor="start" x="637.9" y="4.199999999999999" transform="translate(0,472.12)" style="font-family: 'Open Sans', verdana, arial, sans-serif; font-size: 12px; fill: rgb(42, 63, 95); fill-opacity: 1; white-space: pre; opacity: 1;">1000</text></g><g class="ycbcoloraxistick"><text text-anchor="start" x="637.9" y="4.199999999999999" style="font-family: 'Open Sans', verdana, arial, sans-serif; font-size: 12px; fill: rgb(42, 63, 95); fill-opacity: 1; white-space: pre; opacity: 1;" transform="translate(0,419.55)">1200</text></g><g class="ycbcoloraxistick"><text text-anchor="start" x="637.9" y="4.199999999999999" style="font-family: 'Open Sans', verdana, arial, sans-serif; font-size: 12px; fill: rgb(42, 63, 95); fill-opacity: 1; white-space: pre; opacity: 1;" transform="translate(0,366.97)">1400</text></g><g class="ycbcoloraxistick"><text text-anchor="start" x="637.9" y="4.199999999999999" style="font-family: 'Open Sans', verdana, arial, sans-serif; font-size: 12px; fill: rgb(42, 63, 95); fill-opacity: 1; white-space: pre; opacity: 1;" transform="translate(0,314.40000000000003)">1600</text></g><g class="ycbcoloraxistick"><text text-anchor="start" x="637.9" y="4.199999999999999" style="font-family: 'Open Sans', verdana, arial, sans-serif; font-size: 12px; fill: rgb(42, 63, 95); fill-opacity: 1; white-space: pre; opacity: 1;" transform="translate(0,261.82)">1800</text></g><g class="ycbcoloraxistick"><text text-anchor="start" x="637.9" y="4.199999999999999" style="font-family: 'Open Sans', verdana, arial, sans-serif; font-size: 12px; fill: rgb(42, 63, 95); fill-opacity: 1; white-space: pre; opacity: 1;" transform="translate(0,209.24)">2000</text></g><g class="ycbcoloraxistick"><text text-anchor="start" x="637.9" y="4.199999999999999" style="font-family: 'Open Sans', verdana, arial, sans-serif; font-size: 12px; fill: rgb(42, 63, 95); fill-opacity: 1; white-space: pre; opacity: 1;" transform="translate(0,156.67000000000002)">2200</text></g><g class="ycbcoloraxistick"><text text-anchor="start" x="637.9" y="4.199999999999999" style="font-family: 'Open Sans', verdana, arial, sans-serif; font-size: 12px; fill: rgb(42, 63, 95); fill-opacity: 1; white-space: pre; opacity: 1;" transform="translate(0,104.09000000000002)">2400</text></g></g><g class="cbtitleunshift" transform="translate(-10,-60)"><g class="cbtitle" transform=""><text class="ycbcoloraxistitle" x="614.66" y="83.5" text-anchor="start" style="font-family: 'Open Sans', verdana, arial, sans-serif; font-size: 14px; fill: rgb(42, 63, 95); opacity: 1; font-weight: normal; white-space: pre;">Frecuencia</text></g></g><rect class="cboutline" x="605" y="32" width="30" height="398" style="stroke: rgb(68, 68, 68); stroke-opacity: 1; fill: none; stroke-width: 0;"/></g><g class="g-gtitle"><text class="gtitle" x="350" y="25" text-anchor="middle" dy="0.7em" style="font-family: 'Open Sans', verdana, arial, sans-serif; font-size: 17px; fill: rgb(42, 63, 95); opacity: 1; font-weight: normal; white-space: pre;">Mapa_O</text></g></g></svg>